<svg width="553" height="163" viewBox="0 0 553 163" fill="none" xmlns="http://www.w3.org/2000/svg">
<path d="M14.5 84.332C13.3667 84.332 12.4173 83.948 11.652 83.18C10.8867 82.412 10.5027 81.4627 10.5 80.332C10.4973 79.2014 10.8813 78.252 11.652 77.484C12.4227 76.716 13.372 76.332 14.5 76.332H94.5C95.6333 76.332 96.584 76.716 97.352 77.484C98.12 78.252 98.5027 79.2014 98.5 80.332C98.4973 81.4627 98.1133 82.4134 97.348 83.184C96.5827 83.9547 95.6333 84.3374 94.5 84.332H14.5ZM22.5 72.332C20.3 72.332 18.4173 71.5494 16.852 69.984C15.2867 68.4187 14.5027 66.5347 14.5 64.332V20.332C14.5 18.132 15.284 16.2494 16.852 14.684C18.42 13.1187 20.3027 12.3347 22.5 12.332H86.5C88.7 12.332 90.584 13.116 92.152 14.684C93.72 16.252 94.5027 18.1347 94.5 20.332V64.332C94.5 66.532 93.7173 68.416 92.152 69.984C90.5867 71.552 88.7027 72.3347 86.5 72.332H22.5ZM22.5 64.332H86.5V20.332H22.5V64.332Z" fill="#1E0A52"/>
<path d="M25.7929 54.6249C25.4024 55.0154 25.4024 55.6486 25.7929 56.0391C26.1834 56.4297 26.8166 56.4297 27.2071 56.0391L25.7929 54.6249ZM38.5 43.332L39.2071 42.6249L38.5 41.9178L37.7929 42.6249L38.5 43.332ZM45.5 50.332L44.7929 51.0391L45.5 51.7462L46.2071 51.0391L45.5 50.332ZM59.5 36.332L60.2071 35.6249L59.5 34.9178L58.7929 35.6249L59.5 36.332ZM66.5 43.332L65.7929 44.0391L66.5 44.7462L67.2071 44.0391L66.5 43.332ZM81.5 29.332C81.5 28.7797 81.0523 28.332 80.5 28.332H71.5C70.9477 28.332 70.5 28.7797 70.5 29.332C70.5 29.8843 70.9477 30.332 71.5 30.332H79.5V38.332C79.5 38.8843 79.9477 39.332 80.5 39.332C81.0523 39.332 81.5 38.8843 81.5 38.332V29.332ZM27.2071 56.0391L39.2071 44.0391L37.7929 42.6249L25.7929 54.6249L27.2071 56.0391ZM37.7929 44.0391L44.7929 51.0391L46.2071 49.6249L39.2071 42.6249L37.7929 44.0391ZM46.2071 51.0391L60.2071 37.0391L58.7929 35.6249L44.7929 49.6249L46.2071 51.0391ZM58.7929 37.0391L65.7929 44.0391L67.2071 42.6249L60.2071 35.6249L58.7929 37.0391ZM67.2071 44.0391L81.2071 30.0391L79.7929 28.6249L65.7929 42.6249L67.2071 44.0391Z" fill="#1E0A52"/>
<path d="M18.9443 100.844L14.7203 112.332H12.7843L8.56031 100.844H10.4483L13.7923 110.284L17.1843 100.844H18.9443ZM25.1269 108.844V103.852H26.7429V112.332H25.2389V110.988C24.7909 111.868 23.7989 112.492 22.6469 112.492C20.9349 112.492 19.7509 111.484 19.7509 109.308V103.852H21.3669V108.988C21.3669 110.46 22.1029 111.068 23.1589 111.068C24.2469 111.068 25.1269 110.172 25.1269 108.844ZM30.6192 112.332H28.9872V100.844H30.6192V112.332ZM34.4782 107.548V112.332H32.8622V103.852H34.3662V105.26C34.9422 104.316 35.9022 103.692 37.0702 103.692C38.8142 103.692 39.9662 104.812 39.9662 106.844V112.332H38.3502V107.388C38.3502 105.932 37.7102 105.116 36.5102 105.116C35.4062 105.116 34.4782 106.044 34.4782 107.548ZM45.6002 112.492C43.1522 112.492 41.5042 110.716 41.5042 108.044C41.5042 105.532 43.2162 103.692 45.5522 103.692C48.0802 103.692 49.7602 105.74 49.4722 108.492H43.1522C43.2802 110.22 44.1442 111.228 45.5682 111.228C46.7682 111.228 47.6002 110.572 47.8722 109.468H49.4722C49.0562 111.356 47.6002 112.492 45.6002 112.492ZM45.5202 104.908C44.2242 104.908 43.3442 105.836 43.1682 107.42H47.7602C47.6802 105.852 46.8322 104.908 45.5202 104.908ZM52.8063 107.996V112.332H51.1903V103.852H52.6943V105.644C53.2863 104.476 54.5663 103.74 55.9583 103.74V105.42C54.1343 105.324 52.8063 106.124 52.8063 107.996ZM62.3732 112.332V111.02C61.8452 111.964 60.9012 112.492 59.6532 112.492C57.8932 112.492 56.7412 111.484 56.7412 109.932C56.7412 108.268 58.0692 107.404 60.5972 107.404C61.0932 107.404 61.4932 107.42 62.1812 107.5V106.876C62.1812 105.66 61.5252 104.972 60.4052 104.972C59.2212 104.972 58.5012 105.676 58.4532 106.86H56.9812C57.0612 104.956 58.4212 103.692 60.4052 103.692C62.5012 103.692 63.7172 104.876 63.7172 106.892V112.332H62.3732ZM58.2772 109.884C58.2772 110.764 58.9332 111.34 59.9732 111.34C61.3332 111.34 62.1812 110.492 62.1812 109.196V108.508C61.5572 108.428 61.1092 108.412 60.6932 108.412C59.0772 108.412 58.2772 108.892 58.2772 109.884ZM73.9738 108.092C73.9738 110.636 72.5018 112.492 70.2138 112.492C69.0138 112.492 67.9898 111.884 67.3818 110.812V112.332H65.8778V100.844H67.4938V105.308C68.0858 104.268 69.0618 103.692 70.2138 103.692C72.4858 103.692 73.9738 105.516 73.9738 108.092ZM72.2938 108.092C72.2938 106.172 71.2858 105.116 69.8938 105.116C68.5498 105.116 67.4938 106.156 67.4938 108.06C67.4938 109.932 68.5178 111.052 69.8938 111.052C71.2858 111.052 72.2938 109.98 72.2938 108.092ZM77.5802 101.884C77.5802 102.492 77.1002 102.956 76.4122 102.956C75.7242 102.956 75.2282 102.492 75.2282 101.884C75.2282 101.26 75.7242 100.812 76.4122 100.812C77.1002 100.812 77.5802 101.26 77.5802 101.884ZM77.2282 112.332H75.6122V103.852H77.2282V112.332ZM81.1036 112.332H79.4716V100.844H81.1036V112.332ZM85.3146 101.884C85.3146 102.492 84.8346 102.956 84.1466 102.956C83.4586 102.956 82.9626 102.492 82.9626 101.884C82.9626 101.26 83.4586 100.812 84.1466 100.812C84.8346 100.812 85.3146 101.26 85.3146 101.884ZM84.9626 112.332H83.3466V103.852H84.9626V112.332ZM91.9899 110.764V112.188C91.4939 112.412 91.0619 112.492 90.5499 112.492C88.9819 112.492 87.8939 111.644 87.8939 109.772V105.228H86.0219V103.852H87.8939V101.34H89.5099V103.852H92.0699V105.228H89.5099V109.404C89.5099 110.572 90.0699 110.988 90.9339 110.988C91.3179 110.988 91.6539 110.924 91.9899 110.764ZM100.652 103.852L96.4122 115.42H94.6522L95.8682 112.22L92.5242 103.852H94.2682L96.7322 110.316L99.0202 103.852H100.652ZM8.15644 128.332H6.39644V116.844H8.15644V128.332ZM9.91044 124.092C9.91044 121.516 11.3824 119.692 13.6704 119.692C14.8064 119.692 15.7984 120.268 16.3904 121.308V116.844H18.0064V128.332H16.5024V126.812C15.8944 127.884 14.8704 128.492 13.6704 128.492C11.3824 128.492 9.91044 126.636 9.91044 124.092ZM11.5904 124.092C11.5904 125.98 12.5824 127.052 13.9904 127.052C15.3664 127.052 16.3904 125.932 16.3904 124.06C16.3904 122.156 15.3344 121.116 13.9904 121.116C12.5824 121.116 11.5904 122.172 11.5904 124.092ZM23.7408 128.492C21.2928 128.492 19.6448 126.716 19.6448 124.044C19.6448 121.532 21.3568 119.692 23.6928 119.692C26.2208 119.692 27.9008 121.74 27.6128 124.492H21.2928C21.4208 126.22 22.2848 127.228 23.7088 127.228C24.9088 127.228 25.7408 126.572 26.0128 125.468H27.6128C27.1968 127.356 25.7408 128.492 23.7408 128.492ZM23.6608 120.908C22.3648 120.908 21.4848 121.836 21.3088 123.42H25.9008C25.8208 121.852 24.9728 120.908 23.6608 120.908ZM30.9469 123.548V128.332H29.3309V119.852H30.8349V121.26C31.4109 120.316 32.3709 119.692 33.5389 119.692C35.2829 119.692 36.4349 120.812 36.4349 122.844V128.332H34.8189V123.388C34.8189 121.932 34.1789 121.116 32.9789 121.116C31.8749 121.116 30.9469 122.044 30.9469 123.548ZM43.3337 126.764V128.188C42.8377 128.412 42.4057 128.492 41.8937 128.492C40.3257 128.492 39.2377 127.644 39.2377 125.772V121.228H37.3657V119.852H39.2377V117.34H40.8537V119.852H43.4137V121.228H40.8537V125.404C40.8537 126.572 41.4137 126.988 42.2777 126.988C42.6617 126.988 42.9977 126.924 43.3337 126.764ZM46.9239 117.884C46.9239 118.492 46.4439 118.956 45.7559 118.956C45.0679 118.956 44.5719 118.492 44.5719 117.884C44.5719 117.26 45.0679 116.812 45.7559 116.812C46.4439 116.812 46.9239 117.26 46.9239 117.884ZM46.5719 128.332H44.9559V119.852H46.5719V128.332ZM51.1993 128.332H49.5833V121.228H47.7113V119.852H49.5833V119.228C49.5833 117.596 50.4633 116.7 52.0633 116.7C52.5433 116.7 52.9273 116.78 53.2473 116.908V118.22C52.9913 118.108 52.7033 118.076 52.4153 118.076C51.6473 118.076 51.1993 118.428 51.1993 119.244V119.852H53.5673V121.228H51.1993V128.332ZM56.7513 117.884C56.7513 118.492 56.2713 118.956 55.5833 118.956C54.8953 118.956 54.4153 118.492 54.4153 117.884C54.4153 117.26 54.8953 116.812 55.5833 116.812C56.2713 116.812 56.7513 117.26 56.7513 117.884ZM56.3993 128.332H54.7833V119.852H56.3993V128.332ZM61.9874 128.508C59.6674 128.508 58.0354 126.684 58.0354 124.092C58.0354 121.532 59.6994 119.692 61.9874 119.692C64.0834 119.692 65.6034 121.084 65.9074 123.292H64.2114C64.0354 121.932 63.1874 121.116 62.0034 121.116C60.6114 121.116 59.6994 122.3 59.6994 124.092C59.6994 125.9 60.6114 127.068 62.0034 127.068C63.2034 127.068 64.0354 126.268 64.2274 124.892H65.9074C65.6194 127.132 64.1154 128.508 61.9874 128.508ZM72.6701 128.332V127.02C72.1421 127.964 71.1981 128.492 69.9501 128.492C68.1901 128.492 67.0381 127.484 67.0381 125.932C67.0381 124.268 68.3661 123.404 70.8941 123.404C71.3901 123.404 71.7901 123.42 72.4781 123.5V122.876C72.4781 121.66 71.8221 120.972 70.7021 120.972C69.5181 120.972 68.7981 121.676 68.7501 122.86H67.2781C67.3581 120.956 68.7181 119.692 70.7021 119.692C72.7981 119.692 74.0141 120.876 74.0141 122.892V128.332H72.6701ZM68.5741 125.884C68.5741 126.764 69.2301 127.34 70.2701 127.34C71.6301 127.34 72.4781 126.492 72.4781 125.196V124.508C71.8541 124.428 71.4061 124.412 70.9901 124.412C69.3741 124.412 68.5741 124.892 68.5741 125.884ZM80.8806 126.764V128.188C80.3846 128.412 79.9526 128.492 79.4406 128.492C77.8726 128.492 76.7846 127.644 76.7846 125.772V121.228H74.9126V119.852H76.7846V117.34H78.4006V119.852H80.9606V121.228H78.4006V125.404C78.4006 126.572 78.9606 126.988 79.8246 126.988C80.2086 126.988 80.5446 126.924 80.8806 126.764ZM84.4708 117.884C84.4708 118.492 83.9908 118.956 83.3028 118.956C82.6148 118.956 82.1188 118.492 82.1188 117.884C82.1188 117.26 82.6148 116.812 83.3028 116.812C83.9908 116.812 84.4708 117.26 84.4708 117.884ZM84.1188 128.332H82.5028V119.852H84.1188V128.332ZM89.9142 128.492C87.5142 128.492 85.7542 126.604 85.7542 124.092C85.7542 121.58 87.5142 119.692 89.9142 119.692C92.3142 119.692 94.0742 121.58 94.0742 124.092C94.0742 126.604 92.3142 128.492 89.9142 128.492ZM89.9142 127.068C91.3062 127.068 92.4102 125.948 92.4102 124.092C92.4102 122.236 91.3062 121.132 89.9142 121.132C88.5222 121.132 87.4342 122.236 87.4342 124.092C87.4342 125.948 88.5222 127.068 89.9142 127.068ZM97.3376 123.548V128.332H95.7216V119.852H97.2256V121.26C97.8016 120.316 98.7616 119.692 99.9296 119.692C101.674 119.692 102.826 120.812 102.826 122.844V128.332H101.21V123.388C101.21 121.932 100.57 121.116 99.3696 121.116C98.2656 121.116 97.3376 122.044 97.3376 123.548Z" fill="#1E0A52"/>
<path d="M152.854 65.6856C153.049 65.4903 153.049 65.1737 152.854 64.9785L149.672 61.7965C149.476 61.6012 149.16 61.6012 148.964 61.7965C148.769 61.9918 148.769 62.3083 148.964 62.5036L151.793 65.332L148.964 68.1605C148.769 68.3557 148.769 68.6723 148.964 68.8676C149.16 69.0628 149.476 69.0628 149.672 68.8676L152.854 65.6856ZM116.5 65.832H152.5V64.832H116.5V65.832Z" fill="#1E0A52"/>
<path d="M168.5 84.332C167.367 84.332 166.417 83.948 165.652 83.18C164.887 82.412 164.503 81.4627 164.5 80.332C164.497 79.2014 164.881 78.252 165.652 77.484C166.423 76.716 167.372 76.332 168.5 76.332H248.5C249.633 76.332 250.584 76.716 251.352 77.484C252.12 78.252 252.503 79.2014 252.5 80.332C252.497 81.4627 252.113 82.4134 251.348 83.184C250.583 83.9547 249.633 84.3374 248.5 84.332H168.5ZM176.5 72.332C174.3 72.332 172.417 71.5494 170.852 69.984C169.287 68.4187 168.503 66.5347 168.5 64.332V20.332C168.5 18.132 169.284 16.2494 170.852 14.684C172.42 13.1187 174.303 12.3347 176.5 12.332H240.5C242.7 12.332 244.584 13.116 246.152 14.684C247.72 16.252 248.503 18.1347 248.5 20.332V64.332C248.5 66.532 247.717 68.416 246.152 69.984C244.587 71.552 242.703 72.3347 240.5 72.332H176.5ZM176.5 64.332H240.5V20.332H176.5V64.332Z" fill="#1E0A52"/>
<path d="M181.5 55.332L193.5 43.332L200.5 50.332L214.5 36.332L221.5 43.332L235.5 29.332" stroke="#1E0A52" stroke-width="2" stroke-linecap="round"/>
<path d="M235.167 37.6654C232.744 37.6654 230.695 36.8263 229.017 35.148C227.34 33.4698 226.501 31.42 226.5 28.9987C226.499 26.5774 227.338 24.5276 229.017 22.8494C230.696 21.1711 232.746 20.332 235.167 20.332C237.587 20.332 239.637 21.1711 241.317 22.8494C242.997 24.5276 243.836 26.5774 243.833 28.9987C243.833 29.9765 243.678 30.8987 243.367 31.7654C243.056 32.632 242.633 33.3987 242.1 34.0654L249.567 41.532C249.811 41.7765 249.933 42.0876 249.933 42.4654C249.933 42.8431 249.811 43.1543 249.567 43.3987C249.322 43.6431 249.011 43.7654 248.633 43.7654C248.256 43.7654 247.944 43.6431 247.7 43.3987L240.233 35.932C239.567 36.4654 238.8 36.8876 237.933 37.1987C237.067 37.5098 236.144 37.6654 235.167 37.6654ZM235.167 34.9987C236.833 34.9987 238.25 34.4156 239.417 33.2494C240.584 32.0831 241.168 30.6663 241.167 28.9987C241.166 27.3311 240.583 25.9147 239.417 24.7494C238.252 23.584 236.835 23.0005 235.167 22.9987C233.498 22.9969 232.082 23.5805 230.917 24.7494C229.753 25.9183 229.169 27.3347 229.167 28.9987C229.164 30.6627 229.748 32.0796 230.917 33.2494C232.087 34.4191 233.504 35.0023 235.167 34.9987Z" fill="#7952DF"/>
<circle cx="235" cy="29" r="4" fill="#1E0A52"/>
<path d="M186.675 120.332L185.635 117.484H180.675L179.619 120.332H177.843L182.243 108.844H184.179L188.547 120.332H186.675ZM183.171 110.764L181.203 116.06H185.107L183.171 110.764ZM191.619 115.548V120.332H190.003V111.852H191.507V113.26C192.083 112.316 193.043 111.692 194.211 111.692C195.955 111.692 197.107 112.812 197.107 114.844V120.332H195.491V115.388C195.491 113.932 194.851 113.116 193.651 113.116C192.547 113.116 191.619 114.044 191.619 115.548ZM204.389 120.332V119.02C203.861 119.964 202.917 120.492 201.669 120.492C199.909 120.492 198.757 119.484 198.757 117.932C198.757 116.268 200.085 115.404 202.613 115.404C203.109 115.404 203.509 115.42 204.197 115.5V114.876C204.197 113.66 203.541 112.972 202.421 112.972C201.237 112.972 200.517 113.676 200.469 114.86H198.997C199.077 112.956 200.437 111.692 202.421 111.692C204.517 111.692 205.733 112.876 205.733 114.892V120.332H204.389ZM200.293 117.884C200.293 118.764 200.949 119.34 201.989 119.34C203.349 119.34 204.197 118.492 204.197 117.196V116.508C203.573 116.428 203.125 116.412 202.709 116.412C201.093 116.412 200.293 116.892 200.293 117.884ZM209.525 120.332H207.893V108.844H209.525V120.332ZM218.808 111.852L214.568 123.42H212.808L214.024 120.22L210.68 111.852H212.424L214.888 118.316L217.176 111.852H218.808ZM226.488 117.804C226.488 119.468 225.192 120.492 222.936 120.492C220.696 120.492 219.368 119.388 219.208 117.564H220.76C220.824 118.62 221.672 119.276 222.968 119.276C224.104 119.276 224.856 118.876 224.856 118.076C224.856 117.372 224.424 117.068 223.368 116.86L221.992 116.604C220.424 116.3 219.544 115.5 219.544 114.22C219.544 112.732 220.84 111.692 222.808 111.692C224.84 111.692 226.216 112.78 226.36 114.524H224.808C224.712 113.5 223.96 112.908 222.824 112.908C221.8 112.908 221.112 113.34 221.112 114.076C221.112 114.764 221.544 115.084 222.568 115.276L224.008 115.548C225.688 115.852 226.488 116.588 226.488 117.804ZM230.221 109.884C230.221 110.492 229.741 110.956 229.053 110.956C228.365 110.956 227.869 110.492 227.869 109.884C227.869 109.26 228.365 108.812 229.053 108.812C229.741 108.812 230.221 109.26 230.221 109.884ZM229.869 120.332H228.253V111.852H229.869V120.332ZM238.832 117.804C238.832 119.468 237.536 120.492 235.28 120.492C233.04 120.492 231.712 119.388 231.552 117.564H233.104C233.168 118.62 234.016 119.276 235.312 119.276C236.448 119.276 237.2 118.876 237.2 118.076C237.2 117.372 236.768 117.068 235.712 116.86L234.336 116.604C232.768 116.3 231.888 115.5 231.888 114.22C231.888 112.732 233.184 111.692 235.152 111.692C237.184 111.692 238.56 112.78 238.704 114.524H237.152C237.056 113.5 236.304 112.908 235.168 112.908C234.144 112.908 233.456 113.34 233.456 114.076C233.456 114.764 233.888 115.084 234.912 115.276L236.352 115.548C238.032 115.852 238.832 116.588 238.832 117.804Z" fill="#1E0A52"/>
<path d="M300.854 65.6856C301.049 65.4903 301.049 65.1737 300.854 64.9785L297.672 61.7965C297.476 61.6012 297.16 61.6012 296.964 61.7965C296.769 61.9918 296.769 62.3083 296.964 62.5036L299.793 65.332L296.964 68.1605C296.769 68.3557 296.769 68.6723 296.964 68.8676C297.16 69.0628 297.476 69.0628 297.672 68.8676L300.854 65.6856ZM264.5 65.832H300.5V64.832H264.5V65.832Z" fill="#1E0A52"/>
<path d="M350.3 62.332C351.9 63.932 353.967 64.716 356.5 64.684C359.033 64.652 360.9 63.7347 362.1 61.932L379 36.632C379.6 35.6987 379.517 34.848 378.752 34.08C377.987 33.312 377.136 33.2294 376.2 33.832L350.9 50.732C349.1 51.932 348.151 53.7654 348.052 56.232C347.953 58.6987 348.703 60.732 350.3 62.332ZM356.5 16.332C358.9 16.332 361.267 16.532 363.6 16.932C365.933 17.332 368.2 17.9654 370.4 18.832C371.467 19.232 372.6 19.9827 373.8 21.084C375 22.1854 375.333 23.2347 374.8 24.232C374.267 25.2294 373.067 25.896 371.2 26.232C369.333 26.568 367.833 26.5347 366.7 26.132C365.033 25.532 363.351 25.0827 361.652 24.784C359.953 24.4854 358.236 24.3347 356.5 24.332C347.633 24.332 340.083 27.4494 333.848 33.684C327.613 39.9187 324.497 47.468 324.5 56.332C324.5 59.132 324.884 61.8987 325.652 64.632C326.42 67.3654 327.503 69.932 328.9 72.332H384.1C385.633 69.7987 386.751 67.1654 387.452 64.432C388.153 61.6987 388.503 58.8654 388.5 55.932C388.5 54.1987 388.349 52.4987 388.048 50.832C387.747 49.1654 387.297 47.532 386.7 45.932C386.3 44.7987 386.233 43.6987 386.5 42.632C386.767 41.5654 387.367 40.6654 388.3 39.932C389.167 39.2654 390.117 39.0654 391.152 39.332C392.187 39.5987 392.903 40.1987 393.3 41.132C394.3 43.4654 395.067 45.8494 395.6 48.284C396.133 50.7187 396.433 53.2014 396.5 55.732C396.567 59.532 396.133 63.1654 395.2 66.632C394.267 70.0987 392.9 73.3987 391.1 76.532C390.367 77.732 389.367 78.6654 388.1 79.332C386.833 79.9987 385.5 80.332 384.1 80.332H328.9C327.5 80.332 326.167 79.9987 324.9 79.332C323.633 78.6654 322.633 77.732 321.9 76.532C320.167 73.532 318.833 70.3494 317.9 66.984C316.967 63.6187 316.5 60.068 316.5 56.332C316.5 50.7987 317.551 45.616 319.652 40.784C321.753 35.952 324.62 31.7187 328.252 28.084C331.884 24.4494 336.133 21.5827 341 19.484C345.867 17.3854 351.033 16.3347 356.5 16.332Z" fill="#1E0A52"/>
<path d="M343.735 112.332H341.975V100.844H346.263C348.903 100.844 350.487 102.14 350.487 104.428C350.487 106.076 349.447 107.34 347.703 107.756L350.823 112.332H348.711L345.847 108.012H343.735V112.332ZM343.735 102.316V106.54H346.151C347.783 106.54 348.711 105.82 348.711 104.428C348.711 103.052 347.783 102.316 346.151 102.316H343.735ZM354.361 101.884C354.361 102.492 353.881 102.956 353.193 102.956C352.505 102.956 352.009 102.492 352.009 101.884C352.009 101.26 352.505 100.812 353.193 100.812C353.881 100.812 354.361 101.26 354.361 101.884ZM354.009 112.332H352.393V103.852H354.009V112.332ZM362.973 109.804C362.973 111.468 361.677 112.492 359.421 112.492C357.181 112.492 355.853 111.388 355.693 109.564H357.245C357.309 110.62 358.157 111.276 359.453 111.276C360.589 111.276 361.341 110.876 361.341 110.076C361.341 109.372 360.909 109.068 359.853 108.86L358.477 108.604C356.909 108.3 356.029 107.5 356.029 106.22C356.029 104.732 357.325 103.692 359.293 103.692C361.325 103.692 362.701 104.78 362.845 106.524H361.293C361.197 105.5 360.445 104.908 359.309 104.908C358.285 104.908 357.597 105.34 357.597 106.076C357.597 106.764 358.029 107.084 359.053 107.276L360.493 107.548C362.173 107.852 362.973 108.588 362.973 109.804ZM366.353 112.332H364.737V100.844H366.353V107.644L369.985 103.852H371.889L367.969 107.964L372.257 112.332H370.177L366.353 108.316V112.332ZM318.8 128.332L317.76 125.484H312.8L311.744 128.332H309.968L314.368 116.844H316.304L320.672 128.332H318.8ZM315.296 118.764L313.328 124.06H317.232L315.296 118.764ZM328.848 125.804C328.848 127.468 327.552 128.492 325.296 128.492C323.056 128.492 321.728 127.388 321.568 125.564H323.12C323.184 126.62 324.032 127.276 325.328 127.276C326.464 127.276 327.216 126.876 327.216 126.076C327.216 125.372 326.784 125.068 325.728 124.86L324.352 124.604C322.784 124.3 321.904 123.5 321.904 122.22C321.904 120.732 323.2 119.692 325.168 119.692C327.2 119.692 328.576 120.78 328.72 122.524H327.168C327.072 121.5 326.32 120.908 325.184 120.908C324.16 120.908 323.472 121.34 323.472 122.076C323.472 122.764 323.904 123.084 324.928 123.276L326.368 123.548C328.048 123.852 328.848 124.588 328.848 125.804ZM337.332 125.804C337.332 127.468 336.036 128.492 333.78 128.492C331.54 128.492 330.212 127.388 330.052 125.564H331.604C331.668 126.62 332.516 127.276 333.812 127.276C334.948 127.276 335.7 126.876 335.7 126.076C335.7 125.372 335.268 125.068 334.212 124.86L332.836 124.604C331.268 124.3 330.388 123.5 330.388 122.22C330.388 120.732 331.684 119.692 333.652 119.692C335.684 119.692 337.06 120.78 337.204 122.524H335.652C335.556 121.5 334.804 120.908 333.668 120.908C332.644 120.908 331.956 121.34 331.956 122.076C331.956 122.764 332.388 123.084 333.412 123.276L334.852 123.548C336.532 123.852 337.332 124.588 337.332 125.804ZM342.585 128.492C340.137 128.492 338.489 126.716 338.489 124.044C338.489 121.532 340.201 119.692 342.537 119.692C345.065 119.692 346.745 121.74 346.457 124.492H340.137C340.265 126.22 341.129 127.228 342.553 127.228C343.753 127.228 344.585 126.572 344.857 125.468H346.457C346.041 127.356 344.585 128.492 342.585 128.492ZM342.505 120.908C341.209 120.908 340.329 121.836 340.153 123.42H344.745C344.665 121.852 343.817 120.908 342.505 120.908ZM354.895 125.804C354.895 127.468 353.599 128.492 351.343 128.492C349.103 128.492 347.775 127.388 347.615 125.564H349.167C349.231 126.62 350.079 127.276 351.375 127.276C352.511 127.276 353.263 126.876 353.263 126.076C353.263 125.372 352.831 125.068 351.775 124.86L350.399 124.604C348.831 124.3 347.951 123.5 347.951 122.22C347.951 120.732 349.247 119.692 351.215 119.692C353.247 119.692 354.623 120.78 354.767 122.524H353.215C353.119 121.5 352.367 120.908 351.231 120.908C350.207 120.908 349.519 121.34 349.519 122.076C349.519 122.764 349.951 123.084 350.975 123.276L352.415 123.548C354.095 123.852 354.895 124.588 354.895 125.804ZM363.379 125.804C363.379 127.468 362.083 128.492 359.827 128.492C357.587 128.492 356.259 127.388 356.099 125.564H357.651C357.715 126.62 358.563 127.276 359.859 127.276C360.995 127.276 361.747 126.876 361.747 126.076C361.747 125.372 361.315 125.068 360.259 124.86L358.883 124.604C357.315 124.3 356.435 123.5 356.435 122.22C356.435 120.732 357.731 119.692 359.699 119.692C361.731 119.692 363.107 120.78 363.251 122.524H361.699C361.603 121.5 360.851 120.908 359.715 120.908C358.691 120.908 358.003 121.34 358.003 122.076C358.003 122.764 358.435 123.084 359.459 123.276L360.899 123.548C362.579 123.852 363.379 124.588 363.379 125.804ZM366.759 128.332H365.143V119.852H366.647V121.26C367.223 120.284 368.135 119.692 369.303 119.692C370.551 119.692 371.495 120.332 371.879 121.452C372.471 120.364 373.447 119.692 374.743 119.692C376.487 119.692 377.607 120.828 377.607 122.844V128.332H375.991V123.356C375.991 121.948 375.367 121.116 374.183 121.116C373.079 121.116 372.183 122.044 372.183 123.468V128.332H370.567V123.356C370.567 121.948 369.943 121.116 368.759 121.116C367.639 121.116 366.759 122.044 366.759 123.468V128.332ZM383.256 128.492C380.808 128.492 379.16 126.716 379.16 124.044C379.16 121.532 380.872 119.692 383.208 119.692C385.736 119.692 387.416 121.74 387.128 124.492H380.808C380.936 126.22 381.8 127.228 383.224 127.228C384.424 127.228 385.256 126.572 385.528 125.468H387.128C386.712 127.356 385.256 128.492 383.256 128.492ZM383.176 120.908C381.88 120.908 381 121.836 380.824 123.42H385.416C385.336 121.852 384.488 120.908 383.176 120.908ZM390.463 123.548V128.332H388.847V119.852H390.351V121.26C390.927 120.316 391.887 119.692 393.055 119.692C394.799 119.692 395.951 120.812 395.951 122.844V128.332H394.335V123.388C394.335 121.932 393.695 121.116 392.495 121.116C391.391 121.116 390.463 122.044 390.463 123.548ZM402.849 126.764V128.188C402.353 128.412 401.921 128.492 401.409 128.492C399.841 128.492 398.753 127.644 398.753 125.772V121.228H396.881V119.852H398.753V117.34H400.369V119.852H402.929V121.228H400.369V125.404C400.369 126.572 400.929 126.988 401.793 126.988C402.177 126.988 402.513 126.924 402.849 126.764Z" fill="#1E0A52"/>
<path d="M448.854 65.6856C449.049 65.4903 449.049 65.1737 448.854 64.9785L445.672 61.7965C445.476 61.6012 445.16 61.6012 444.964 61.7965C444.769 61.9918 444.769 62.3083 444.964 62.5036L447.793 65.332L444.964 68.1605C444.769 68.3557 444.769 68.6723 444.964 68.8676C445.16 69.0628 445.476 69.0628 445.672 68.8676L448.854 65.6856ZM412.5 65.832H448.5V64.832H412.5V65.832Z" fill="#1E0A52"/>
<path fill-rule="evenodd" clip-rule="evenodd" d="M503.2 87.8316C503.6 87.8983 504.033 87.9316 504.5 87.9316C504.967 87.9316 505.4 87.8983 505.8 87.8316C506.2 87.765 506.6 87.665 507 87.5316C516 84.5343 523.167 78.985 528.5 70.8836C533.833 62.7823 536.5 54.065 536.5 44.7316V25.8316C536.503 24.165 536.02 22.665 535.052 21.3316C534.084 19.9983 532.833 19.0316 531.3 18.4316L507.3 9.43164C506.367 9.09831 505.433 8.93164 504.5 8.93164C503.567 8.93164 502.633 9.09831 501.7 9.43164L477.7 18.4316C476.169 19.0316 474.92 19.9983 473.952 21.3316C472.984 22.665 472.5 24.165 472.5 25.8316V44.7316C472.5 54.0623 475.167 62.7783 480.5 70.8796C485.833 78.981 493 84.5316 502 87.5316C502.4 87.665 502.8 87.765 503.2 87.8316ZM521.7 66.7316C517.167 73.3316 511.433 77.7316 504.5 79.9316C497.567 77.7316 491.833 73.3316 487.3 66.7316C482.767 60.1316 480.5 52.7983 480.5 44.7316V25.8316L504.5 16.8316L528.5 25.8316V44.7316C528.5 52.7983 526.233 60.1316 521.7 66.7316Z" fill="#1E0A52"/>
<path fill-rule="evenodd" clip-rule="evenodd" d="M496.5 64.3316H512.5C513.633 64.3316 514.584 63.9476 515.352 63.1796C516.12 62.4116 516.503 61.4623 516.5 60.3316V48.3316C516.5 47.1983 516.116 46.249 515.348 45.4836C514.58 44.7183 513.631 44.3343 512.5 44.3316V40.3316C512.5 38.1316 511.717 36.249 510.152 34.6836C508.587 33.1183 506.703 32.3343 504.5 32.3316C502.297 32.329 500.415 33.113 498.852 34.6836C497.289 36.2543 496.505 38.137 496.5 40.3316V44.3316C495.367 44.3316 494.417 44.7156 493.652 45.4836C492.887 46.2516 492.503 47.201 492.5 48.3316V60.3316C492.5 61.465 492.884 62.4156 493.652 63.1836C494.42 63.9516 495.369 64.3343 496.5 64.3316ZM500.5 40.3316V44.3316H508.5V40.3316C508.505 39.2036 508.123 38.2543 507.352 37.4836C506.581 36.713 505.631 36.329 504.5 36.3316C503.369 36.3343 502.42 36.7183 501.652 37.4836C500.884 38.249 500.5 39.1983 500.5 40.3316Z" fill="#1E0A52"/>
<path d="M460.61 120.332H458.85V108.844H463.138C465.778 108.844 467.362 110.14 467.362 112.428C467.362 114.076 466.322 115.34 464.578 115.756L467.698 120.332H465.586L462.722 116.012H460.61V120.332ZM460.61 110.316V114.54H463.026C464.658 114.54 465.586 113.82 465.586 112.428C465.586 111.052 464.658 110.316 463.026 110.316H460.61ZM472.35 120.492C469.902 120.492 468.254 118.716 468.254 116.044C468.254 113.532 469.966 111.692 472.302 111.692C474.83 111.692 476.51 113.74 476.222 116.492H469.902C470.03 118.22 470.894 119.228 472.318 119.228C473.518 119.228 474.35 118.572 474.622 117.468H476.222C475.806 119.356 474.35 120.492 472.35 120.492ZM472.27 112.908C470.974 112.908 470.094 113.836 469.918 115.42H474.51C474.43 113.852 473.582 112.908 472.27 112.908ZM479.556 120.332H477.94V111.852H479.444V113.26C480.02 112.284 480.932 111.692 482.1 111.692C483.348 111.692 484.292 112.332 484.676 113.452C485.268 112.364 486.244 111.692 487.54 111.692C489.284 111.692 490.404 112.828 490.404 114.844V120.332H488.788V115.356C488.788 113.948 488.164 113.116 486.98 113.116C485.876 113.116 484.98 114.044 484.98 115.468V120.332H483.364V115.356C483.364 113.948 482.74 113.116 481.556 113.116C480.436 113.116 479.556 114.044 479.556 115.468V120.332ZM496.053 120.492C493.605 120.492 491.957 118.716 491.957 116.044C491.957 113.532 493.669 111.692 496.005 111.692C498.533 111.692 500.213 113.74 499.925 116.492H493.605C493.733 118.22 494.597 119.228 496.021 119.228C497.221 119.228 498.053 118.572 498.325 117.468H499.925C499.509 119.356 498.053 120.492 496.053 120.492ZM495.973 112.908C494.677 112.908 493.797 113.836 493.621 115.42H498.213C498.133 113.852 497.285 112.908 495.973 112.908ZM500.879 116.092C500.879 113.516 502.351 111.692 504.639 111.692C505.775 111.692 506.767 112.268 507.359 113.308V108.844H508.975V120.332H507.471V118.812C506.863 119.884 505.839 120.492 504.639 120.492C502.351 120.492 500.879 118.636 500.879 116.092ZM502.559 116.092C502.559 117.98 503.551 119.052 504.959 119.052C506.335 119.052 507.359 117.932 507.359 116.06C507.359 114.156 506.303 113.116 504.959 113.116C503.551 113.116 502.559 114.172 502.559 116.092ZM513.19 109.884C513.19 110.492 512.71 110.956 512.022 110.956C511.334 110.956 510.838 110.492 510.838 109.884C510.838 109.26 511.334 108.812 512.022 108.812C512.71 108.812 513.19 109.26 513.19 109.884ZM512.838 120.332H511.222V111.852H512.838V120.332ZM520.217 120.332V119.02C519.689 119.964 518.745 120.492 517.497 120.492C515.737 120.492 514.585 119.484 514.585 117.932C514.585 116.268 515.913 115.404 518.441 115.404C518.937 115.404 519.337 115.42 520.025 115.5V114.876C520.025 113.66 519.369 112.972 518.249 112.972C517.065 112.972 516.345 113.676 516.297 114.86H514.825C514.905 112.956 516.265 111.692 518.249 111.692C520.345 111.692 521.561 112.876 521.561 114.892V120.332H520.217ZM516.121 117.884C516.121 118.764 516.777 119.34 517.817 119.34C519.177 119.34 520.025 118.492 520.025 117.196V116.508C519.401 116.428 518.953 116.412 518.537 116.412C516.921 116.412 516.121 116.892 516.121 117.884ZM528.427 118.764V120.188C527.931 120.412 527.499 120.492 526.987 120.492C525.419 120.492 524.331 119.644 524.331 117.772V113.228H522.459V111.852H524.331V109.34H525.947V111.852H528.507V113.228H525.947V117.404C525.947 118.572 526.507 118.988 527.371 118.988C527.755 118.988 528.091 118.924 528.427 118.764ZM532.018 109.884C532.018 110.492 531.538 110.956 530.85 110.956C530.162 110.956 529.666 110.492 529.666 109.884C529.666 109.26 530.162 108.812 530.85 108.812C531.538 108.812 532.018 109.26 532.018 109.884ZM531.666 120.332H530.05V111.852H531.666V120.332ZM537.461 120.492C535.061 120.492 533.301 118.604 533.301 116.092C533.301 113.58 535.061 111.692 537.461 111.692C539.861 111.692 541.621 113.58 541.621 116.092C541.621 118.604 539.861 120.492 537.461 120.492ZM537.461 119.068C538.853 119.068 539.957 117.948 539.957 116.092C539.957 114.236 538.853 113.132 537.461 113.132C536.069 113.132 534.981 114.236 534.981 116.092C534.981 117.948 536.069 119.068 537.461 119.068ZM544.884 115.548V120.332H543.268V111.852H544.772V113.26C545.348 112.316 546.308 111.692 547.476 111.692C549.22 111.692 550.372 112.812 550.372 114.844V120.332H548.756V115.388C548.756 113.932 548.116 113.116 546.916 113.116C545.812 113.116 544.884 114.044 544.884 115.548Z" fill="#1E0A52"/>
<path d="M51.3536 137.978C51.1583 137.783 50.8417 137.783 50.6465 137.978L47.4645 141.16C47.2692 141.356 47.2692 141.672 47.4645 141.868C47.6597 142.063 47.9763 142.063 48.1716 141.868L51 139.039L53.8284 141.868C54.0237 142.063 54.3403 142.063 54.5356 141.868C54.7308 141.672 54.7308 141.356 54.5356 141.16L51.3536 137.978ZM478 161.832L75 161.832L75 162.832L478 162.832L478 161.832ZM51.5 138.332L50.5 138.332L51.5 138.332ZM75 161.832C62.0213 161.832 51.5 151.311 51.5 138.332L50.5 138.332C50.5 151.863 61.469 162.832 75 162.832L75 161.832ZM501.5 138.332C501.5 151.311 490.979 161.832 478 161.832L478 162.832C491.531 162.832 502.5 151.863 502.5 138.332L501.5 138.332Z" fill="#1E0A52"/>
</svg>
