<svg width="552" height="163" viewBox="0 0 552 163" fill="none" xmlns="http://www.w3.org/2000/svg">
<path d="M14 84.3334C12.8667 84.3334 11.9173 83.9494 11.152 83.1814C10.3867 82.4134 10.0027 81.4641 10 80.3334C9.99735 79.2028 10.3813 78.2534 11.152 77.4854C11.9227 76.7174 12.872 76.3334 14 76.3334H94C95.1333 76.3334 96.084 76.7174 96.852 77.4854C97.62 78.2534 98.0027 79.2028 98 80.3334C97.9973 81.4641 97.6133 82.4148 96.848 83.1854C96.0827 83.9561 95.1333 84.3388 94 84.3334H14ZM22 72.3334C19.8 72.3334 17.9173 71.5508 16.352 69.9854C14.7867 68.4201 14.0027 66.5361 14 64.3334V20.3334C14 18.1334 14.784 16.2508 16.352 14.6854C17.92 13.1201 19.8027 12.3361 22 12.3334H86C88.2 12.3334 90.084 13.1174 91.652 14.6854C93.22 16.2534 94.0027 18.1361 94 20.3334V64.3334C94 66.5334 93.2173 68.4174 91.652 69.9854C90.0867 71.5534 88.2027 72.3361 86 72.3334H22ZM22 64.3334H86V20.3334H22V64.3334Z" fill="white"/>
<path d="M25.2929 54.6263C24.9024 55.0169 24.9024 55.65 25.2929 56.0405C25.6834 56.4311 26.3166 56.4311 26.7071 56.0405L25.2929 54.6263ZM38 43.3334L38.7071 42.6263L38 41.9192L37.2929 42.6263L38 43.3334ZM45 50.3334L44.2929 51.0405L45 51.7476L45.7071 51.0405L45 50.3334ZM59 36.3334L59.7071 35.6263L59 34.9192L58.2929 35.6263L59 36.3334ZM66 43.3334L65.2929 44.0405L66 44.7476L66.7071 44.0405L66 43.3334ZM81 29.3334C81 28.7812 80.5523 28.3334 80 28.3334H71C70.4477 28.3334 70 28.7812 70 29.3334C70 29.8857 70.4477 30.3334 71 30.3334H79V38.3334C79 38.8857 79.4477 39.3334 80 39.3334C80.5523 39.3334 81 38.8857 81 38.3334V29.3334ZM26.7071 56.0405L38.7071 44.0405L37.2929 42.6263L25.2929 54.6263L26.7071 56.0405ZM37.2929 44.0405L44.2929 51.0405L45.7071 49.6263L38.7071 42.6263L37.2929 44.0405ZM45.7071 51.0405L59.7071 37.0405L58.2929 35.6263L44.2929 49.6263L45.7071 51.0405ZM58.2929 37.0405L65.2929 44.0405L66.7071 42.6263L59.7071 35.6263L58.2929 37.0405ZM66.7071 44.0405L80.7071 30.0405L79.2929 28.6263L65.2929 42.6263L66.7071 44.0405Z" fill="white"/>
<path d="M18.4443 100.845L14.2203 112.333H12.2843L8.06031 100.845H9.94831L13.2923 110.285L16.6843 100.845H18.4443ZM24.6269 108.845V103.853H26.2429V112.333H24.7389V110.989C24.2909 111.869 23.2989 112.493 22.1469 112.493C20.4349 112.493 19.2509 111.485 19.2509 109.309V103.853H20.8669V108.989C20.8669 110.461 21.6029 111.069 22.6589 111.069C23.7469 111.069 24.6269 110.173 24.6269 108.845ZM30.1192 112.333H28.4872V100.845H30.1192V112.333ZM33.9782 107.549V112.333H32.3622V103.853H33.8662V105.261C34.4422 104.317 35.4022 103.693 36.5702 103.693C38.3142 103.693 39.4662 104.813 39.4662 106.845V112.333H37.8502V107.389C37.8502 105.933 37.2102 105.117 36.0102 105.117C34.9062 105.117 33.9782 106.045 33.9782 107.549ZM45.1002 112.493C42.6522 112.493 41.0042 110.717 41.0042 108.045C41.0042 105.533 42.7162 103.693 45.0522 103.693C47.5802 103.693 49.2602 105.741 48.9722 108.493H42.6522C42.7802 110.221 43.6442 111.229 45.0682 111.229C46.2682 111.229 47.1002 110.573 47.3722 109.469H48.9722C48.5562 111.357 47.1002 112.493 45.1002 112.493ZM45.0202 104.909C43.7242 104.909 42.8442 105.837 42.6682 107.421H47.2602C47.1802 105.853 46.3322 104.909 45.0202 104.909ZM52.3063 107.997V112.333H50.6903V103.853H52.1943V105.645C52.7863 104.477 54.0663 103.741 55.4583 103.741V105.421C53.6343 105.325 52.3063 106.125 52.3063 107.997ZM61.8732 112.333V111.021C61.3452 111.965 60.4012 112.493 59.1532 112.493C57.3932 112.493 56.2412 111.485 56.2412 109.933C56.2412 108.269 57.5692 107.405 60.0972 107.405C60.5932 107.405 60.9932 107.421 61.6812 107.501V106.877C61.6812 105.661 61.0252 104.973 59.9052 104.973C58.7212 104.973 58.0012 105.677 57.9532 106.861H56.4812C56.5612 104.957 57.9212 103.693 59.9052 103.693C62.0012 103.693 63.2172 104.877 63.2172 106.893V112.333H61.8732ZM57.7772 109.885C57.7772 110.765 58.4332 111.341 59.4732 111.341C60.8332 111.341 61.6812 110.493 61.6812 109.197V108.509C61.0572 108.429 60.6092 108.413 60.1932 108.413C58.5772 108.413 57.7772 108.893 57.7772 109.885ZM73.4738 108.093C73.4738 110.637 72.0018 112.493 69.7138 112.493C68.5138 112.493 67.4898 111.885 66.8818 110.813V112.333H65.3778V100.845H66.9938V105.309C67.5858 104.269 68.5618 103.693 69.7138 103.693C71.9858 103.693 73.4738 105.517 73.4738 108.093ZM71.7938 108.093C71.7938 106.173 70.7858 105.117 69.3938 105.117C68.0498 105.117 66.9938 106.157 66.9938 108.061C66.9938 109.933 68.0178 111.053 69.3938 111.053C70.7858 111.053 71.7938 109.981 71.7938 108.093ZM77.0802 101.885C77.0802 102.493 76.6002 102.957 75.9122 102.957C75.2242 102.957 74.7282 102.493 74.7282 101.885C74.7282 101.261 75.2242 100.813 75.9122 100.813C76.6002 100.813 77.0802 101.261 77.0802 101.885ZM76.7282 112.333H75.1122V103.853H76.7282V112.333ZM80.6036 112.333H78.9716V100.845H80.6036V112.333ZM84.8146 101.885C84.8146 102.493 84.3346 102.957 83.6466 102.957C82.9586 102.957 82.4626 102.493 82.4626 101.885C82.4626 101.261 82.9586 100.813 83.6466 100.813C84.3346 100.813 84.8146 101.261 84.8146 101.885ZM84.4626 112.333H82.8466V103.853H84.4626V112.333ZM91.4899 110.765V112.189C90.9939 112.413 90.5619 112.493 90.0499 112.493C88.4819 112.493 87.3939 111.645 87.3939 109.773V105.229H85.5219V103.853H87.3939V101.341H89.0099V103.853H91.5699V105.229H89.0099V109.405C89.0099 110.573 89.5699 110.989 90.4339 110.989C90.8179 110.989 91.1539 110.925 91.4899 110.765ZM100.152 103.853L95.9122 115.421H94.1522L95.3682 112.221L92.0242 103.853H93.7682L96.2322 110.317L98.5202 103.853H100.152ZM7.65644 128.333H5.89644V116.845H7.65644V128.333ZM9.41044 124.093C9.41044 121.517 10.8824 119.693 13.1704 119.693C14.3064 119.693 15.2984 120.269 15.8904 121.309V116.845H17.5064V128.333H16.0024V126.813C15.3944 127.885 14.3704 128.493 13.1704 128.493C10.8824 128.493 9.41044 126.637 9.41044 124.093ZM11.0904 124.093C11.0904 125.981 12.0824 127.053 13.4904 127.053C14.8664 127.053 15.8904 125.933 15.8904 124.061C15.8904 122.157 14.8344 121.117 13.4904 121.117C12.0824 121.117 11.0904 122.173 11.0904 124.093ZM23.2408 128.493C20.7928 128.493 19.1448 126.717 19.1448 124.045C19.1448 121.533 20.8568 119.693 23.1928 119.693C25.7208 119.693 27.4008 121.741 27.1128 124.493H20.7928C20.9208 126.221 21.7848 127.229 23.2088 127.229C24.4088 127.229 25.2408 126.573 25.5128 125.469H27.1128C26.6968 127.357 25.2408 128.493 23.2408 128.493ZM23.1608 120.909C21.8648 120.909 20.9848 121.837 20.8088 123.421H25.4008C25.3208 121.853 24.4728 120.909 23.1608 120.909ZM30.4469 123.549V128.333H28.8309V119.853H30.3349V121.261C30.9109 120.317 31.8709 119.693 33.0389 119.693C34.7829 119.693 35.9349 120.813 35.9349 122.845V128.333H34.3189V123.389C34.3189 121.933 33.6789 121.117 32.4789 121.117C31.3749 121.117 30.4469 122.045 30.4469 123.549ZM42.8337 126.765V128.189C42.3377 128.413 41.9057 128.493 41.3937 128.493C39.8257 128.493 38.7377 127.645 38.7377 125.773V121.229H36.8657V119.853H38.7377V117.341H40.3537V119.853H42.9137V121.229H40.3537V125.405C40.3537 126.573 40.9137 126.989 41.7777 126.989C42.1617 126.989 42.4977 126.925 42.8337 126.765ZM46.4239 117.885C46.4239 118.493 45.9439 118.957 45.2559 118.957C44.5679 118.957 44.0719 118.493 44.0719 117.885C44.0719 117.261 44.5679 116.813 45.2559 116.813C45.9439 116.813 46.4239 117.261 46.4239 117.885ZM46.0719 128.333H44.4559V119.853H46.0719V128.333ZM50.6993 128.333H49.0833V121.229H47.2113V119.853H49.0833V119.229C49.0833 117.597 49.9633 116.701 51.5633 116.701C52.0433 116.701 52.4273 116.781 52.7473 116.909V118.221C52.4913 118.109 52.2033 118.077 51.9153 118.077C51.1473 118.077 50.6993 118.429 50.6993 119.245V119.853H53.0673V121.229H50.6993V128.333ZM56.2513 117.885C56.2513 118.493 55.7713 118.957 55.0833 118.957C54.3953 118.957 53.9153 118.493 53.9153 117.885C53.9153 117.261 54.3953 116.813 55.0833 116.813C55.7713 116.813 56.2513 117.261 56.2513 117.885ZM55.8993 128.333H54.2833V119.853H55.8993V128.333ZM61.4874 128.509C59.1674 128.509 57.5354 126.685 57.5354 124.093C57.5354 121.533 59.1994 119.693 61.4874 119.693C63.5834 119.693 65.1034 121.085 65.4074 123.293H63.7114C63.5354 121.933 62.6874 121.117 61.5034 121.117C60.1114 121.117 59.1994 122.301 59.1994 124.093C59.1994 125.901 60.1114 127.069 61.5034 127.069C62.7034 127.069 63.5354 126.269 63.7274 124.893H65.4074C65.1194 127.133 63.6154 128.509 61.4874 128.509ZM72.1701 128.333V127.021C71.6421 127.965 70.6981 128.493 69.4501 128.493C67.6901 128.493 66.5381 127.485 66.5381 125.933C66.5381 124.269 67.8661 123.405 70.3941 123.405C70.8901 123.405 71.2901 123.421 71.9781 123.501V122.877C71.9781 121.661 71.3221 120.973 70.2021 120.973C69.0181 120.973 68.2981 121.677 68.2501 122.861H66.7781C66.8581 120.957 68.2181 119.693 70.2021 119.693C72.2981 119.693 73.5141 120.877 73.5141 122.893V128.333H72.1701ZM68.0741 125.885C68.0741 126.765 68.7301 127.341 69.7701 127.341C71.1301 127.341 71.9781 126.493 71.9781 125.197V124.509C71.3541 124.429 70.9061 124.413 70.4901 124.413C68.8741 124.413 68.0741 124.893 68.0741 125.885ZM80.3806 126.765V128.189C79.8846 128.413 79.4526 128.493 78.9406 128.493C77.3726 128.493 76.2846 127.645 76.2846 125.773V121.229H74.4126V119.853H76.2846V117.341H77.9006V119.853H80.4606V121.229H77.9006V125.405C77.9006 126.573 78.4606 126.989 79.3246 126.989C79.7086 126.989 80.0446 126.925 80.3806 126.765ZM83.9708 117.885C83.9708 118.493 83.4908 118.957 82.8028 118.957C82.1148 118.957 81.6188 118.493 81.6188 117.885C81.6188 117.261 82.1148 116.813 82.8028 116.813C83.4908 116.813 83.9708 117.261 83.9708 117.885ZM83.6188 128.333H82.0028V119.853H83.6188V128.333ZM89.4142 128.493C87.0142 128.493 85.2542 126.605 85.2542 124.093C85.2542 121.581 87.0142 119.693 89.4142 119.693C91.8142 119.693 93.5742 121.581 93.5742 124.093C93.5742 126.605 91.8142 128.493 89.4142 128.493ZM89.4142 127.069C90.8062 127.069 91.9102 125.949 91.9102 124.093C91.9102 122.237 90.8062 121.133 89.4142 121.133C88.0222 121.133 86.9342 122.237 86.9342 124.093C86.9342 125.949 88.0222 127.069 89.4142 127.069ZM96.8376 123.549V128.333H95.2216V119.853H96.7256V121.261C97.3016 120.317 98.2616 119.693 99.4296 119.693C101.174 119.693 102.326 120.813 102.326 122.845V128.333H100.71V123.389C100.71 121.933 100.07 121.117 98.8696 121.117C97.7656 121.117 96.8376 122.045 96.8376 123.549Z" fill="white"/>
<path d="M152.354 65.687C152.549 65.4917 152.549 65.1751 152.354 64.9799L149.172 61.7979C148.976 61.6026 148.66 61.6026 148.464 61.7979C148.269 61.9932 148.269 62.3097 148.464 62.505L151.293 65.3334L148.464 68.1619C148.269 68.3571 148.269 68.6737 148.464 68.869C148.66 69.0642 148.976 69.0642 149.172 68.869L152.354 65.687ZM116 65.8334H152V64.8334H116V65.8334Z" fill="white"/>
<path d="M168 84.3334C166.867 84.3334 165.917 83.9494 165.152 83.1814C164.387 82.4134 164.003 81.4641 164 80.3334C163.997 79.2028 164.381 78.2534 165.152 77.4854C165.923 76.7174 166.872 76.3334 168 76.3334H248C249.133 76.3334 250.084 76.7174 250.852 77.4854C251.62 78.2534 252.003 79.2028 252 80.3334C251.997 81.4641 251.613 82.4148 250.848 83.1854C250.083 83.9561 249.133 84.3388 248 84.3334H168ZM176 72.3334C173.8 72.3334 171.917 71.5508 170.352 69.9854C168.787 68.4201 168.003 66.5361 168 64.3334V20.3334C168 18.1334 168.784 16.2508 170.352 14.6854C171.92 13.1201 173.803 12.3361 176 12.3334H240C242.2 12.3334 244.084 13.1174 245.652 14.6854C247.22 16.2534 248.003 18.1361 248 20.3334V64.3334C248 66.5334 247.217 68.4174 245.652 69.9854C244.087 71.5534 242.203 72.3361 240 72.3334H176ZM176 64.3334H240V20.3334H176V64.3334Z" fill="white"/>
<path d="M181 55.3334L193 43.3334L200 50.3334L214 36.3334L221 43.3334L235 29.3334" stroke="white" stroke-width="2" stroke-linecap="round"/>
<path d="M234.667 37.6668C232.244 37.6668 230.195 36.8277 228.517 35.1494C226.84 33.4712 226.001 31.4214 226 29.0001C225.999 26.5788 226.838 24.529 228.517 22.8508C230.196 21.1725 232.246 20.3334 234.667 20.3334C237.087 20.3334 239.137 21.1725 240.817 22.8508C242.497 24.529 243.336 26.5788 243.333 29.0001C243.333 29.9779 243.178 30.9001 242.867 31.7668C242.556 32.6334 242.133 33.4001 241.6 34.0668L249.067 41.5334C249.311 41.7779 249.433 42.089 249.433 42.4668C249.433 42.8445 249.311 43.1557 249.067 43.4001C248.822 43.6445 248.511 43.7668 248.133 43.7668C247.756 43.7668 247.444 43.6445 247.2 43.4001L239.733 35.9334C239.067 36.4668 238.3 36.889 237.433 37.2001C236.567 37.5112 235.644 37.6668 234.667 37.6668ZM234.667 35.0001C236.333 35.0001 237.75 34.417 238.917 33.2508C240.084 32.0845 240.668 30.6677 240.667 29.0001C240.666 27.3325 240.083 25.9161 238.917 24.7508C237.752 23.5854 236.335 23.0019 234.667 23.0001C232.998 22.9983 231.582 23.5819 230.417 24.7508C229.253 25.9197 228.669 27.3361 228.667 29.0001C228.664 30.6641 229.248 32.081 230.417 33.2508C231.587 34.4205 233.004 35.0037 234.667 35.0001Z" fill="#7952DF"/>
<circle cx="234.5" cy="29.0014" r="4" fill="white"/>
<path d="M186.175 120.333L185.135 117.485H180.175L179.119 120.333H177.343L181.743 108.845H183.679L188.047 120.333H186.175ZM182.671 110.765L180.703 116.061H184.607L182.671 110.765ZM191.119 115.549V120.333H189.503V111.853H191.007V113.261C191.583 112.317 192.543 111.693 193.711 111.693C195.455 111.693 196.607 112.813 196.607 114.845V120.333H194.991V115.389C194.991 113.933 194.351 113.117 193.151 113.117C192.047 113.117 191.119 114.045 191.119 115.549ZM203.889 120.333V119.021C203.361 119.965 202.417 120.493 201.169 120.493C199.409 120.493 198.257 119.485 198.257 117.933C198.257 116.269 199.585 115.405 202.113 115.405C202.609 115.405 203.009 115.421 203.697 115.501V114.877C203.697 113.661 203.041 112.973 201.921 112.973C200.737 112.973 200.017 113.677 199.969 114.861H198.497C198.577 112.957 199.937 111.693 201.921 111.693C204.017 111.693 205.233 112.877 205.233 114.893V120.333H203.889ZM199.793 117.885C199.793 118.765 200.449 119.341 201.489 119.341C202.849 119.341 203.697 118.493 203.697 117.197V116.509C203.073 116.429 202.625 116.413 202.209 116.413C200.593 116.413 199.793 116.893 199.793 117.885ZM209.025 120.333H207.393V108.845H209.025V120.333ZM218.308 111.853L214.068 123.421H212.308L213.524 120.221L210.18 111.853H211.924L214.388 118.317L216.676 111.853H218.308ZM225.988 117.805C225.988 119.469 224.692 120.493 222.436 120.493C220.196 120.493 218.868 119.389 218.708 117.565H220.26C220.324 118.621 221.172 119.277 222.468 119.277C223.604 119.277 224.356 118.877 224.356 118.077C224.356 117.373 223.924 117.069 222.868 116.861L221.492 116.605C219.924 116.301 219.044 115.501 219.044 114.221C219.044 112.733 220.34 111.693 222.308 111.693C224.34 111.693 225.716 112.781 225.86 114.525H224.308C224.212 113.501 223.46 112.909 222.324 112.909C221.3 112.909 220.612 113.341 220.612 114.077C220.612 114.765 221.044 115.085 222.068 115.277L223.508 115.549C225.188 115.853 225.988 116.589 225.988 117.805ZM229.721 109.885C229.721 110.493 229.241 110.957 228.553 110.957C227.865 110.957 227.369 110.493 227.369 109.885C227.369 109.261 227.865 108.813 228.553 108.813C229.241 108.813 229.721 109.261 229.721 109.885ZM229.369 120.333H227.753V111.853H229.369V120.333ZM238.332 117.805C238.332 119.469 237.036 120.493 234.78 120.493C232.54 120.493 231.212 119.389 231.052 117.565H232.604C232.668 118.621 233.516 119.277 234.812 119.277C235.948 119.277 236.7 118.877 236.7 118.077C236.7 117.373 236.268 117.069 235.212 116.861L233.836 116.605C232.268 116.301 231.388 115.501 231.388 114.221C231.388 112.733 232.684 111.693 234.652 111.693C236.684 111.693 238.06 112.781 238.204 114.525H236.652C236.556 113.501 235.804 112.909 234.668 112.909C233.644 112.909 232.956 113.341 232.956 114.077C232.956 114.765 233.388 115.085 234.412 115.277L235.852 115.549C237.532 115.853 238.332 116.589 238.332 117.805Z" fill="white"/>
<path d="M300.354 65.687C300.549 65.4917 300.549 65.1751 300.354 64.9799L297.172 61.7979C296.976 61.6026 296.66 61.6026 296.464 61.7979C296.269 61.9932 296.269 62.3097 296.464 62.505L299.293 65.3334L296.464 68.1619C296.269 68.3571 296.269 68.6737 296.464 68.869C296.66 69.0642 296.976 69.0642 297.172 68.869L300.354 65.687ZM264 65.8334H300V64.8334H264V65.8334Z" fill="white"/>
<path d="M349.8 62.3334C351.4 63.9334 353.467 64.7174 356 64.6854C358.533 64.6534 360.4 63.7361 361.6 61.9334L378.5 36.6334C379.1 35.7001 379.017 34.8494 378.252 34.0814C377.487 33.3134 376.636 33.2308 375.7 33.8334L350.4 50.7334C348.6 51.9334 347.651 53.7668 347.552 56.2334C347.453 58.7001 348.203 60.7334 349.8 62.3334ZM356 16.3334C358.4 16.3334 360.767 16.5334 363.1 16.9334C365.433 17.3334 367.7 17.9668 369.9 18.8334C370.967 19.2334 372.1 19.9841 373.3 21.0854C374.5 22.1868 374.833 23.2361 374.3 24.2334C373.767 25.2308 372.567 25.8974 370.7 26.2334C368.833 26.5694 367.333 26.5361 366.2 26.1334C364.533 25.5334 362.851 25.0841 361.152 24.7854C359.453 24.4868 357.736 24.3361 356 24.3334C347.133 24.3334 339.583 27.4508 333.348 33.6854C327.113 39.9201 323.997 47.4694 324 56.3334C324 59.1334 324.384 61.9001 325.152 64.6334C325.92 67.3668 327.003 69.9334 328.4 72.3334H383.6C385.133 69.8001 386.251 67.1668 386.952 64.4334C387.653 61.7001 388.003 58.8668 388 55.9334C388 54.2001 387.849 52.5001 387.548 50.8334C387.247 49.1668 386.797 47.5334 386.2 45.9334C385.8 44.8001 385.733 43.7001 386 42.6334C386.267 41.5668 386.867 40.6668 387.8 39.9334C388.667 39.2668 389.617 39.0668 390.652 39.3334C391.687 39.6001 392.403 40.2001 392.8 41.1334C393.8 43.4668 394.567 45.8508 395.1 48.2854C395.633 50.7201 395.933 53.2028 396 55.7334C396.067 59.5334 395.633 63.1668 394.7 66.6334C393.767 70.1001 392.4 73.4001 390.6 76.5334C389.867 77.7334 388.867 78.6668 387.6 79.3334C386.333 80.0001 385 80.3334 383.6 80.3334H328.4C327 80.3334 325.667 80.0001 324.4 79.3334C323.133 78.6668 322.133 77.7334 321.4 76.5334C319.667 73.5334 318.333 70.3508 317.4 66.9854C316.467 63.6201 316 60.0694 316 56.3334C316 50.8001 317.051 45.6174 319.152 40.7854C321.253 35.9534 324.12 31.7201 327.752 28.0854C331.384 24.4508 335.633 21.5841 340.5 19.4854C345.367 17.3868 350.533 16.3361 356 16.3334Z" fill="white"/>
<path d="M343.235 112.333H341.475V100.845H345.763C348.403 100.845 349.987 102.141 349.987 104.429C349.987 106.077 348.947 107.341 347.203 107.757L350.323 112.333H348.211L345.347 108.013H343.235V112.333ZM343.235 102.317V106.541H345.651C347.283 106.541 348.211 105.821 348.211 104.429C348.211 103.053 347.283 102.317 345.651 102.317H343.235ZM353.861 101.885C353.861 102.493 353.381 102.957 352.693 102.957C352.005 102.957 351.509 102.493 351.509 101.885C351.509 101.261 352.005 100.813 352.693 100.813C353.381 100.813 353.861 101.261 353.861 101.885ZM353.509 112.333H351.893V103.853H353.509V112.333ZM362.473 109.805C362.473 111.469 361.177 112.493 358.921 112.493C356.681 112.493 355.353 111.389 355.193 109.565H356.745C356.809 110.621 357.657 111.277 358.953 111.277C360.089 111.277 360.841 110.877 360.841 110.077C360.841 109.373 360.409 109.069 359.353 108.861L357.977 108.605C356.409 108.301 355.529 107.501 355.529 106.221C355.529 104.733 356.825 103.693 358.793 103.693C360.825 103.693 362.201 104.781 362.345 106.525H360.793C360.697 105.501 359.945 104.909 358.809 104.909C357.785 104.909 357.097 105.341 357.097 106.077C357.097 106.765 357.529 107.085 358.553 107.277L359.993 107.549C361.673 107.853 362.473 108.589 362.473 109.805ZM365.853 112.333H364.237V100.845H365.853V107.645L369.485 103.853H371.389L367.469 107.965L371.757 112.333H369.677L365.853 108.317V112.333ZM318.3 128.333L317.26 125.485H312.3L311.244 128.333H309.468L313.868 116.845H315.804L320.172 128.333H318.3ZM314.796 118.765L312.828 124.061H316.732L314.796 118.765ZM328.348 125.805C328.348 127.469 327.052 128.493 324.796 128.493C322.556 128.493 321.228 127.389 321.068 125.565H322.62C322.684 126.621 323.532 127.277 324.828 127.277C325.964 127.277 326.716 126.877 326.716 126.077C326.716 125.373 326.284 125.069 325.228 124.861L323.852 124.605C322.284 124.301 321.404 123.501 321.404 122.221C321.404 120.733 322.7 119.693 324.668 119.693C326.7 119.693 328.076 120.781 328.22 122.525H326.668C326.572 121.501 325.82 120.909 324.684 120.909C323.66 120.909 322.972 121.341 322.972 122.077C322.972 122.765 323.404 123.085 324.428 123.277L325.868 123.549C327.548 123.853 328.348 124.589 328.348 125.805ZM336.832 125.805C336.832 127.469 335.536 128.493 333.28 128.493C331.04 128.493 329.712 127.389 329.552 125.565H331.104C331.168 126.621 332.016 127.277 333.312 127.277C334.448 127.277 335.2 126.877 335.2 126.077C335.2 125.373 334.768 125.069 333.712 124.861L332.336 124.605C330.768 124.301 329.888 123.501 329.888 122.221C329.888 120.733 331.184 119.693 333.152 119.693C335.184 119.693 336.56 120.781 336.704 122.525H335.152C335.056 121.501 334.304 120.909 333.168 120.909C332.144 120.909 331.456 121.341 331.456 122.077C331.456 122.765 331.888 123.085 332.912 123.277L334.352 123.549C336.032 123.853 336.832 124.589 336.832 125.805ZM342.085 128.493C339.637 128.493 337.989 126.717 337.989 124.045C337.989 121.533 339.701 119.693 342.037 119.693C344.565 119.693 346.245 121.741 345.957 124.493H339.637C339.765 126.221 340.629 127.229 342.053 127.229C343.253 127.229 344.085 126.573 344.357 125.469H345.957C345.541 127.357 344.085 128.493 342.085 128.493ZM342.005 120.909C340.709 120.909 339.829 121.837 339.653 123.421H344.245C344.165 121.853 343.317 120.909 342.005 120.909ZM354.395 125.805C354.395 127.469 353.099 128.493 350.843 128.493C348.603 128.493 347.275 127.389 347.115 125.565H348.667C348.731 126.621 349.579 127.277 350.875 127.277C352.011 127.277 352.763 126.877 352.763 126.077C352.763 125.373 352.331 125.069 351.275 124.861L349.899 124.605C348.331 124.301 347.451 123.501 347.451 122.221C347.451 120.733 348.747 119.693 350.715 119.693C352.747 119.693 354.123 120.781 354.267 122.525H352.715C352.619 121.501 351.867 120.909 350.731 120.909C349.707 120.909 349.019 121.341 349.019 122.077C349.019 122.765 349.451 123.085 350.475 123.277L351.915 123.549C353.595 123.853 354.395 124.589 354.395 125.805ZM362.879 125.805C362.879 127.469 361.583 128.493 359.327 128.493C357.087 128.493 355.759 127.389 355.599 125.565H357.151C357.215 126.621 358.063 127.277 359.359 127.277C360.495 127.277 361.247 126.877 361.247 126.077C361.247 125.373 360.815 125.069 359.759 124.861L358.383 124.605C356.815 124.301 355.935 123.501 355.935 122.221C355.935 120.733 357.231 119.693 359.199 119.693C361.231 119.693 362.607 120.781 362.751 122.525H361.199C361.103 121.501 360.351 120.909 359.215 120.909C358.191 120.909 357.503 121.341 357.503 122.077C357.503 122.765 357.935 123.085 358.959 123.277L360.399 123.549C362.079 123.853 362.879 124.589 362.879 125.805ZM366.259 128.333H364.643V119.853H366.147V121.261C366.723 120.285 367.635 119.693 368.803 119.693C370.051 119.693 370.995 120.333 371.379 121.453C371.971 120.365 372.947 119.693 374.243 119.693C375.987 119.693 377.107 120.829 377.107 122.845V128.333H375.491V123.357C375.491 121.949 374.867 121.117 373.683 121.117C372.579 121.117 371.683 122.045 371.683 123.469V128.333H370.067V123.357C370.067 121.949 369.443 121.117 368.259 121.117C367.139 121.117 366.259 122.045 366.259 123.469V128.333ZM382.756 128.493C380.308 128.493 378.66 126.717 378.66 124.045C378.66 121.533 380.372 119.693 382.708 119.693C385.236 119.693 386.916 121.741 386.628 124.493H380.308C380.436 126.221 381.3 127.229 382.724 127.229C383.924 127.229 384.756 126.573 385.028 125.469H386.628C386.212 127.357 384.756 128.493 382.756 128.493ZM382.676 120.909C381.38 120.909 380.5 121.837 380.324 123.421H384.916C384.836 121.853 383.988 120.909 382.676 120.909ZM389.963 123.549V128.333H388.347V119.853H389.851V121.261C390.427 120.317 391.387 119.693 392.555 119.693C394.299 119.693 395.451 120.813 395.451 122.845V128.333H393.835V123.389C393.835 121.933 393.195 121.117 391.995 121.117C390.891 121.117 389.963 122.045 389.963 123.549ZM402.349 126.765V128.189C401.853 128.413 401.421 128.493 400.909 128.493C399.341 128.493 398.253 127.645 398.253 125.773V121.229H396.381V119.853H398.253V117.341H399.869V119.853H402.429V121.229H399.869V125.405C399.869 126.573 400.429 126.989 401.293 126.989C401.677 126.989 402.013 126.925 402.349 126.765Z" fill="white"/>
<path d="M448.354 65.687C448.549 65.4917 448.549 65.1751 448.354 64.9799L445.172 61.7979C444.976 61.6026 444.66 61.6026 444.464 61.7979C444.269 61.9932 444.269 62.3097 444.464 62.505L447.293 65.3334L444.464 68.1619C444.269 68.3571 444.269 68.6737 444.464 68.869C444.66 69.0642 444.976 69.0642 445.172 68.869L448.354 65.687ZM412 65.8334H448V64.8334H412V65.8334Z" fill="white"/>
<path fill-rule="evenodd" clip-rule="evenodd" d="M502.7 87.8334C503.1 87.9001 503.533 87.9334 504 87.9334C504.467 87.9334 504.9 87.9001 505.3 87.8334C505.7 87.7667 506.1 87.6667 506.5 87.5334C515.5 84.5361 522.667 78.9867 528 70.8854C533.333 62.7841 536 54.0667 536 44.7334V25.8334C536.003 24.1667 535.52 22.6667 534.552 21.3334C533.584 20.0001 532.333 19.0334 530.8 18.4334L506.8 9.43341C505.867 9.10008 504.933 8.93341 504 8.93341C503.067 8.93341 502.133 9.10008 501.2 9.43341L477.2 18.4334C475.669 19.0334 474.42 20.0001 473.452 21.3334C472.484 22.6667 472 24.1667 472 25.8334V44.7334C472 54.0641 474.667 62.7801 480 70.8814C485.333 78.9827 492.5 84.5334 501.5 87.5334C501.9 87.6667 502.3 87.7667 502.7 87.8334ZM521.2 66.7334C516.667 73.3334 510.933 77.7334 504 79.9334C497.067 77.7334 491.333 73.3334 486.8 66.7334C482.267 60.1334 480 52.8001 480 44.7334V25.8334L504 16.8334L528 25.8334V44.7334C528 52.8001 525.733 60.1334 521.2 66.7334Z" fill="white"/>
<path fill-rule="evenodd" clip-rule="evenodd" d="M496 64.3334H512C513.133 64.3334 514.084 63.9494 514.852 63.1814C515.62 62.4134 516.003 61.4641 516 60.3334V48.3334C516 47.2001 515.616 46.2507 514.848 45.4854C514.08 44.7201 513.131 44.3361 512 44.3334V40.3334C512 38.1334 511.217 36.2507 509.652 34.6854C508.087 33.1201 506.203 32.3361 504 32.3334C501.797 32.3307 499.915 33.1147 498.352 34.6854C496.789 36.2561 496.005 38.1387 496 40.3334V44.3334C494.867 44.3334 493.917 44.7174 493.152 45.4854C492.387 46.2534 492.003 47.2027 492 48.3334V60.3334C492 61.4667 492.384 62.4174 493.152 63.1854C493.92 63.9534 494.869 64.3361 496 64.3334ZM500 40.3334V44.3334H508V40.3334C508.005 39.2054 507.623 38.2561 506.852 37.4854C506.081 36.7147 505.131 36.3307 504 36.3334C502.869 36.3361 501.92 36.7201 501.152 37.4854C500.384 38.2507 500 39.2001 500 40.3334Z" fill="white"/>
<path d="M460.11 120.333H458.35V108.845H462.638C465.278 108.845 466.862 110.141 466.862 112.429C466.862 114.077 465.822 115.341 464.078 115.757L467.198 120.333H465.086L462.222 116.013H460.11V120.333ZM460.11 110.317V114.541H462.526C464.158 114.541 465.086 113.821 465.086 112.429C465.086 111.053 464.158 110.317 462.526 110.317H460.11ZM471.85 120.493C469.402 120.493 467.754 118.717 467.754 116.045C467.754 113.533 469.466 111.693 471.802 111.693C474.33 111.693 476.01 113.741 475.722 116.493H469.402C469.53 118.221 470.394 119.229 471.818 119.229C473.018 119.229 473.85 118.573 474.122 117.469H475.722C475.306 119.357 473.85 120.493 471.85 120.493ZM471.77 112.909C470.474 112.909 469.594 113.837 469.418 115.421H474.01C473.93 113.853 473.082 112.909 471.77 112.909ZM479.056 120.333H477.44V111.853H478.944V113.261C479.52 112.285 480.432 111.693 481.6 111.693C482.848 111.693 483.792 112.333 484.176 113.453C484.768 112.365 485.744 111.693 487.04 111.693C488.784 111.693 489.904 112.829 489.904 114.845V120.333H488.288V115.357C488.288 113.949 487.664 113.117 486.48 113.117C485.376 113.117 484.48 114.045 484.48 115.469V120.333H482.864V115.357C482.864 113.949 482.24 113.117 481.056 113.117C479.936 113.117 479.056 114.045 479.056 115.469V120.333ZM495.553 120.493C493.105 120.493 491.457 118.717 491.457 116.045C491.457 113.533 493.169 111.693 495.505 111.693C498.033 111.693 499.713 113.741 499.425 116.493H493.105C493.233 118.221 494.097 119.229 495.521 119.229C496.721 119.229 497.553 118.573 497.825 117.469H499.425C499.009 119.357 497.553 120.493 495.553 120.493ZM495.473 112.909C494.177 112.909 493.297 113.837 493.121 115.421H497.713C497.633 113.853 496.785 112.909 495.473 112.909ZM500.379 116.093C500.379 113.517 501.851 111.693 504.139 111.693C505.275 111.693 506.267 112.269 506.859 113.309V108.845H508.475V120.333H506.971V118.813C506.363 119.885 505.339 120.493 504.139 120.493C501.851 120.493 500.379 118.637 500.379 116.093ZM502.059 116.093C502.059 117.981 503.051 119.053 504.459 119.053C505.835 119.053 506.859 117.933 506.859 116.061C506.859 114.157 505.803 113.117 504.459 113.117C503.051 113.117 502.059 114.173 502.059 116.093ZM512.69 109.885C512.69 110.493 512.21 110.957 511.522 110.957C510.834 110.957 510.338 110.493 510.338 109.885C510.338 109.261 510.834 108.813 511.522 108.813C512.21 108.813 512.69 109.261 512.69 109.885ZM512.338 120.333H510.722V111.853H512.338V120.333ZM519.717 120.333V119.021C519.189 119.965 518.245 120.493 516.997 120.493C515.237 120.493 514.085 119.485 514.085 117.933C514.085 116.269 515.413 115.405 517.941 115.405C518.437 115.405 518.837 115.421 519.525 115.501V114.877C519.525 113.661 518.869 112.973 517.749 112.973C516.565 112.973 515.845 113.677 515.797 114.861H514.325C514.405 112.957 515.765 111.693 517.749 111.693C519.845 111.693 521.061 112.877 521.061 114.893V120.333H519.717ZM515.621 117.885C515.621 118.765 516.277 119.341 517.317 119.341C518.677 119.341 519.525 118.493 519.525 117.197V116.509C518.901 116.429 518.453 116.413 518.037 116.413C516.421 116.413 515.621 116.893 515.621 117.885ZM527.927 118.765V120.189C527.431 120.413 526.999 120.493 526.487 120.493C524.919 120.493 523.831 119.645 523.831 117.773V113.229H521.959V111.853H523.831V109.341H525.447V111.853H528.007V113.229H525.447V117.405C525.447 118.573 526.007 118.989 526.871 118.989C527.255 118.989 527.591 118.925 527.927 118.765ZM531.518 109.885C531.518 110.493 531.038 110.957 530.35 110.957C529.662 110.957 529.166 110.493 529.166 109.885C529.166 109.261 529.662 108.813 530.35 108.813C531.038 108.813 531.518 109.261 531.518 109.885ZM531.166 120.333H529.55V111.853H531.166V120.333ZM536.961 120.493C534.561 120.493 532.801 118.605 532.801 116.093C532.801 113.581 534.561 111.693 536.961 111.693C539.361 111.693 541.121 113.581 541.121 116.093C541.121 118.605 539.361 120.493 536.961 120.493ZM536.961 119.069C538.353 119.069 539.457 117.949 539.457 116.093C539.457 114.237 538.353 113.133 536.961 113.133C535.569 113.133 534.481 114.237 534.481 116.093C534.481 117.949 535.569 119.069 536.961 119.069ZM544.384 115.549V120.333H542.768V111.853H544.272V113.261C544.848 112.317 545.808 111.693 546.976 111.693C548.72 111.693 549.872 112.813 549.872 114.845V120.333H548.256V115.389C548.256 113.933 547.616 113.117 546.416 113.117C545.312 113.117 544.384 114.045 544.384 115.549Z" fill="white"/>
<path d="M50.8536 137.98C50.6583 137.785 50.3417 137.785 50.1465 137.98L46.9645 141.162C46.7692 141.357 46.7692 141.674 46.9645 141.869C47.1597 142.064 47.4763 142.064 47.6716 141.869L50.5 139.041L53.3284 141.869C53.5237 142.064 53.8403 142.064 54.0356 141.869C54.2308 141.674 54.2308 141.357 54.0356 141.162L50.8536 137.98ZM477.5 161.833L74.5 161.833L74.5 162.833L477.5 162.833L477.5 161.833ZM51 138.333L50 138.333L51 138.333ZM74.5 161.833C61.5213 161.833 51 151.312 51 138.333L50 138.333C50 151.864 60.969 162.833 74.5 162.833L74.5 161.833ZM501 138.333C501 151.312 490.479 161.833 477.5 161.833L477.5 162.833C491.031 162.833 502 151.864 502 138.333L501 138.333Z" fill="white"/>
</svg>
