<svg width="513" height="256" viewBox="0 0 513 256" fill="none" xmlns="http://www.w3.org/2000/svg">
<path d="M0.5 256C0.5 222.382 7.12164 189.092 19.9868 158.033C32.852 126.974 51.7089 98.7525 75.4807 74.9807C99.2525 51.2089 127.474 32.352 158.533 19.4868C189.592 6.62163 222.882 -1.46951e-06 256.5 0C290.118 1.46951e-06 323.408 6.62164 354.467 19.4868C385.526 32.3521 413.748 51.2089 437.519 74.9807C461.291 98.7525 480.148 126.974 493.013 158.033C505.878 189.092 512.5 222.382 512.5 256L0.5 256Z" fill="url(#paint0_linear_43_44)"/>
<defs>
<linearGradient id="paint0_linear_43_44" x1="62.6714" y1="-8.8354" x2="163.026" y2="296.038" gradientUnits="userSpaceOnUse">
<stop stop-color="#F3F4FF"/>
<stop offset="1" stop-color="white"/>
</linearGradient>
</defs>
</svg>
