<svg width="180" height="42" viewBox="0 0 180 42" fill="none" xmlns="http://www.w3.org/2000/svg">
<g clip-path="url(#clip0_571_159)">
<mask id="mask0_571_159" style="mask-type:luminance" maskUnits="userSpaceOnUse" x="0" y="0" width="32" height="41">
<path d="M0 0.897583H31.5125V40.9941H0V0.897583Z" fill="white"/>
</mask>
<g mask="url(#mask0_571_159)">
<path fill-rule="evenodd" clip-rule="evenodd" d="M1.04144 37.216C1.72219 38.4014 2.66873 39.3397 3.78884 39.9934C4.91981 40.6444 6.2081 40.9941 7.57773 40.9941H20.672C22.0335 40.9941 23.3218 40.6444 24.4527 39.9934C25.5729 39.3397 26.5194 38.4014 27.211 37.216L31.1924 30.3272C31.7891 29.2993 31.4392 27.992 30.4113 27.3953C29.3807 26.7987 28.0735 27.1458 27.4768 28.1764L23.4953 35.0626V35.0735C23.1916 35.5969 22.7875 36.0118 22.3183 36.2776C21.8491 36.5434 21.2876 36.6926 20.672 36.6926H7.57773C6.96207 36.6926 6.40064 36.5434 5.94231 36.2776H5.93146C5.46225 36.0118 5.05813 35.5969 4.75438 35.0626C4.45332 34.5391 4.30416 33.9886 4.30416 33.4353C4.30416 32.8847 4.45332 32.3233 4.75438 31.808L12.0392 19.2019V19.1938L19.3105 6.57687C19.6143 6.05343 20.0184 5.64932 20.4984 5.37268C20.9676 5.10688 21.5182 4.95772 22.1447 4.95772C22.7224 4.95772 23.2567 5.08789 23.6988 5.31842C23.7259 5.33469 23.753 5.35368 23.7801 5.36453C24.2575 5.63847 24.6724 6.05343 24.9653 6.56872C25.5539 7.59664 26.8693 7.94649 27.8918 7.35795C28.9196 6.76941 29.2695 5.45405 28.681 4.43426C27.9921 3.2382 27.0455 2.29166 25.9309 1.64888C25.8875 1.62176 25.8413 1.59193 25.7844 1.57565C24.6914 0.968132 23.4492 0.645386 22.1339 0.645386C20.7724 0.645386 19.4868 0.995253 18.3558 1.64888H18.345C17.233 2.29166 16.2864 3.2382 15.5976 4.43426L8.32358 17.0322L1.04144 29.6573C0.349842 30.8533 0.00268555 32.1389 0.00268555 33.4353C0.00268555 34.7236 0.349842 36.0119 1.04144 37.216Z" fill="#F9F9FE"/>
</g>
<mask id="mask1_571_159" style="mask-type:luminance" maskUnits="userSpaceOnUse" x="14" y="11" width="31" height="30">
<path d="M14.1547 11.231H44.2622V40.9941H14.1547V11.231Z" fill="white"/>
</mask>
<g mask="url(#mask1_571_159)">
<path fill-rule="evenodd" clip-rule="evenodd" d="M33.5087 40.9941H36.7009C38.0597 40.9941 39.3481 40.644 40.479 39.9934C41.6099 39.3398 42.5563 38.4014 43.2372 37.216C43.2642 37.1699 43.294 37.1238 43.3103 37.0777C43.9558 35.9196 44.2759 34.6775 44.2759 33.4353C44.2759 32.1497 43.9259 30.8615 43.2372 29.6654L35.0817 15.5242C34.3929 14.3282 33.4436 13.3817 32.3316 12.7389H32.3235C31.1925 12.0852 29.9042 11.7354 28.5428 11.7354C27.1839 11.7354 25.8957 12.0852 24.7647 12.7389C23.6419 13.3898 22.6953 14.3282 22.0065 15.5242L14.8138 27.9839C14.6213 28.3229 14.5291 28.6836 14.5291 29.0497C14.5291 29.7956 14.9169 30.5116 15.6058 30.9076C16.6364 31.4961 17.9409 31.1462 18.5295 30.1156L25.7194 17.656C26.0232 17.1325 26.43 16.7203 26.8965 16.4518C27.3657 16.186 27.9271 16.0395 28.5428 16.0395C29.1584 16.0395 29.7198 16.186 30.1809 16.4518C30.6582 16.7284 31.0732 17.1434 31.3661 17.656L39.5214 31.7999C39.8254 32.3233 39.9744 32.8766 39.9744 33.4353C39.9744 33.9614 39.8442 34.4849 39.5786 34.9812C39.5594 35.0083 39.5406 35.0355 39.5214 35.0626C39.2097 35.5969 38.8055 36.0118 38.3444 36.2776C37.8778 36.5434 37.3164 36.6926 36.7009 36.6926H33.5087C32.3235 36.6926 31.3579 37.6581 31.3579 38.8433C31.3579 40.0284 32.3126 40.9941 33.5087 40.9941Z" fill="#CDCDE9"/>
</g>
<path d="M61.6633 27.4992C60.6548 27.4992 59.7972 27.3482 59.0865 27.0461C58.3801 26.744 57.8069 26.3353 57.3628 25.8199C56.9187 25.3001 56.5897 24.7004 56.3765 24.0251C56.1677 23.3498 56.0656 22.6367 56.0656 21.8837C56.0656 21.1507 56.1677 20.4443 56.3765 19.769C56.5897 19.0937 56.9187 18.4939 57.3628 17.9653C57.8069 17.4388 58.3845 17.0234 59.0953 16.7213C59.8109 16.4148 60.6725 16.2593 61.681 16.2593C62.9118 16.2593 63.9114 16.4281 64.6753 16.7657C65.4396 17.1034 66.0128 17.6076 66.3993 18.2763C66.7903 18.9404 67.0212 19.7579 67.0924 20.7286H64.5864C64.5156 19.9356 64.2622 19.3247 63.8314 18.8982C63.405 18.4717 62.6964 18.2585 61.7079 18.2585C60.6349 18.2585 59.8529 18.565 59.362 19.1737C58.8688 19.7845 58.6247 20.6886 58.6247 21.8837C58.6247 23.0632 58.8556 23.9607 59.3177 24.576C59.784 25.1868 60.5549 25.4911 61.6278 25.4911C62.6584 25.4911 63.3983 25.269 63.8491 24.8248C64.298 24.3761 64.5554 23.7319 64.6222 22.8966H67.1455C67.0677 23.9274 66.839 24.7848 66.4613 25.4645C66.0814 26.1464 65.5019 26.6551 64.7199 26.9928C63.9424 27.3304 62.9251 27.4992 61.6633 27.4992Z" fill="#F9F9FE"/>
<path d="M75.9293 16.5347H78.6481L74.6321 23.9895V27.2237H72.1884V23.9895L68.1547 16.5347H70.8823L72.6329 20.2487C72.7616 20.5508 72.8904 20.8485 73.015 21.1372C73.1438 21.4216 73.2659 21.7148 73.3791 22.0169C73.5038 21.7148 73.6303 21.4216 73.7612 21.1372C73.8903 20.8485 74.0235 20.5508 74.1611 20.2487L75.9293 16.5347Z" fill="#F9F9FE"/>
<path d="M86.8865 21.7148C87.335 21.7748 87.7393 21.9014 88.0949 22.0969C88.4504 22.2879 88.7278 22.5633 88.9299 22.9232C89.1299 23.2853 89.232 23.7495 89.232 24.3182C89.232 25.2201 88.941 25.9309 88.3615 26.4507C87.7861 26.966 86.9241 27.2237 85.7759 27.2237H79.9292V16.5347H85.8913C86.6556 16.5347 87.2708 16.6546 87.7393 16.8901C88.2125 17.1277 88.557 17.4476 88.7702 17.8497C88.9834 18.2473 89.09 18.6894 89.09 19.1736C89.09 19.9555 88.8724 20.542 88.4412 20.9329C88.0148 21.3238 87.4951 21.586 86.8865 21.7148ZM85.1717 18.3828H82.3728V20.9418H85.0917C85.6246 20.9418 85.9979 20.8241 86.2111 20.5864C86.4243 20.3509 86.5309 20.0399 86.5309 19.6534C86.5309 19.2447 86.4287 18.9315 86.2288 18.7116C86.0267 18.4939 85.6737 18.3828 85.1717 18.3828ZM85.2337 25.3578C85.7781 25.3578 86.158 25.229 86.3712 24.9669C86.5888 24.707 86.6999 24.3782 86.6999 23.9806C86.6999 23.5496 86.5778 23.2075 86.3354 22.9587C86.0912 22.7055 85.6781 22.5767 85.0917 22.5767H82.3728V25.3578H85.2337Z" fill="#F9F9FE"/>
<path d="M93.2499 25.2778H99.2478V27.2237H90.8066V16.5347H99.1943V18.4628H93.2499V20.8618H98.7145V22.6744H93.2499V25.2778Z" fill="#F9F9FE"/>
<path d="M109.862 24.6203V25.34C109.862 25.7843 109.882 26.1464 109.924 26.424C109.971 26.7039 110.022 26.9705 110.076 27.2237H107.632C107.565 27.0282 107.512 26.7839 107.472 26.4862C107.436 26.1841 107.419 25.8154 107.419 25.3756V24.8158C107.419 24.2116 107.255 23.774 106.93 23.5008C106.604 23.2297 106.175 23.0921 105.642 23.0921H103.438V27.2237H100.977V16.5347H106.619C107.796 16.5347 108.681 16.8079 109.267 17.3521C109.858 17.8919 110.156 18.5938 110.156 19.4579C110.156 20.2109 109.938 20.8329 109.507 21.3238C109.08 21.8103 108.549 22.1213 107.916 22.2568C108.283 22.3412 108.612 22.4701 108.903 22.6478C109.198 22.8255 109.431 23.0721 109.605 23.3853C109.776 23.694 109.862 24.105 109.862 24.6203ZM106.068 21.3416C106.623 21.3416 107.019 21.2128 107.25 20.9507C107.481 20.6841 107.596 20.3065 107.596 19.8134C107.596 19.3647 107.474 19.0203 107.232 18.7826C106.995 18.5472 106.606 18.4272 106.068 18.4272H103.438V21.3416H106.068Z" fill="#F9F9FE"/>
<path d="M111.52 23.7052H113.892C113.928 24.2739 114.134 24.7448 114.514 25.1179C114.892 25.4911 115.505 25.6777 116.353 25.6777C117.171 25.6777 117.733 25.5511 118.042 25.2956C118.348 25.0424 118.504 24.6981 118.504 24.265C118.504 23.4964 118.026 23.0455 117.073 22.9144L114.719 22.6123C113.77 22.4945 113.039 22.1769 112.524 21.6616C112.013 21.1462 111.76 20.4509 111.76 19.5735C111.76 18.6094 112.126 17.8142 112.861 17.1922C113.595 16.5703 114.712 16.2593 116.211 16.2593C117.282 16.2593 118.15 16.417 118.815 16.7302C119.477 17.039 119.972 17.4544 120.299 17.9741C120.623 18.4961 120.809 19.0715 120.858 19.6979H118.459C118.393 19.1959 118.177 18.7982 117.811 18.5072C117.448 18.2118 116.915 18.063 116.211 18.063C115.554 18.063 115.056 18.1874 114.719 18.4362C114.381 18.6805 114.212 19.0115 114.212 19.4313C114.212 19.7401 114.31 20 114.505 20.2132C114.705 20.4265 115.03 20.5598 115.474 20.6131L117.704 20.8885C119.877 21.1373 120.965 22.1836 120.965 24.0251C120.965 24.7248 120.807 25.3379 120.494 25.8643C120.185 26.3863 119.69 26.7884 119.01 27.0727C118.335 27.3571 117.437 27.4992 116.318 27.4992C115.44 27.4992 114.701 27.3948 114.097 27.1882C113.493 26.975 113.004 26.6906 112.631 26.3353C112.262 25.9754 111.991 25.5667 111.813 25.1091C111.635 24.6537 111.538 24.185 111.52 23.7052Z" fill="#F9F9FE"/>
<path d="M124.998 25.2778H130.996V27.2237H122.555V16.5347H130.942V18.4628H124.998V20.8618H130.463V22.6744H124.998V25.2778Z" fill="#F9F9FE"/>
<path d="M138.11 27.4992C137.101 27.4992 136.244 27.3482 135.533 27.0461C134.827 26.744 134.253 26.3353 133.809 25.8199C133.365 25.3001 133.036 24.7004 132.823 24.0251C132.614 23.3498 132.512 22.6367 132.512 21.8837C132.512 21.1506 132.614 20.4443 132.823 19.769C133.036 19.0937 133.365 18.4939 133.809 17.9653C134.253 17.4388 134.831 17.0234 135.542 16.7213C136.257 16.4147 137.119 16.2593 138.127 16.2593C139.358 16.2593 140.358 16.4281 141.122 16.7657C141.886 17.1034 142.459 17.6076 142.845 18.2762C143.236 18.9404 143.468 19.7579 143.539 20.7286H141.033C140.962 19.9356 140.709 19.3247 140.278 18.8982C139.851 18.4717 139.143 18.2585 138.154 18.2585C137.081 18.2585 136.299 18.565 135.809 19.1737C135.315 19.7845 135.071 20.6886 135.071 21.8837C135.071 23.0632 135.302 23.9606 135.764 24.5759C136.23 25.1868 137.001 25.4911 138.074 25.4911C139.105 25.4911 139.844 25.269 140.296 24.8247C140.744 24.376 141.002 23.7318 141.068 22.8966H143.592C143.514 23.9273 143.286 24.7847 142.908 25.4645C142.528 26.1464 141.948 26.6551 141.166 26.9928C140.389 27.3304 139.371 27.4992 138.11 27.4992Z" fill="#F9F9FE"/>
<path d="M144.548 27.2238V25.1002H146.929V27.2238H144.548Z" fill="#F9F9FE"/>
<path d="M156.187 16.5347H158.533V27.2237H154.481L151.14 19.9288C151.02 19.6512 150.912 19.3758 150.812 19.1025C150.709 18.8248 150.616 18.5516 150.527 18.2851V27.2237H148.181V16.5347H152.233L155.61 23.945C155.703 24.1716 155.801 24.4159 155.903 24.6825C156.003 24.9446 156.098 25.2134 156.187 25.4911V16.5347Z" fill="#CDCDE9"/>
<path d="M162.836 25.2778H168.833V27.2237H160.392V16.5347H168.78V18.4628H162.836V20.8618H168.3V22.6744H162.836V25.2778Z" fill="#CDCDE9"/>
<path d="M179.644 16.5347V18.4628H176.125V27.2237H173.682V18.4628H170.163V16.5347H179.644Z" fill="#CDCDE9"/>
</g>
<defs>
<clipPath id="clip0_571_159">
<rect width="180" height="40.2049" fill="white" transform="translate(0 0.897583)"/>
</clipPath>
</defs>
</svg>
