<svg width="181" height="42" viewBox="0 0 181 42" fill="none" xmlns="http://www.w3.org/2000/svg">
<g clip-path="url(#clip0_571_3005)">
<mask id="mask0_571_3005" style="mask-type:luminance" maskUnits="userSpaceOnUse" x="0" y="0" width="32" height="42">
<path d="M0.182861 0.979492L31.6952 1.07874L31.5689 41.175L0.0565742 41.0758L0.182861 0.979492Z" fill="white"/>
</mask>
<g mask="url(#mask0_571_3005)">
<path fill-rule="evenodd" clip-rule="evenodd" d="M1.10997 37.3013C1.78698 38.4888 2.73056 39.4301 3.8486 40.0873C4.97752 40.7415 6.26471 41.0956 7.63432 41.0999L20.7285 41.1411C22.09 41.1454 23.3794 40.7995 24.5124 40.1524C25.6346 39.5023 26.5841 38.5669 27.2794 37.3837L31.2825 30.5074C31.8824 29.4814 31.5367 28.173 30.5106 27.5731C29.4819 26.9732 28.1736 27.3163 27.5737 28.345L23.5705 35.2186L23.5705 35.2294C23.2651 35.7519 22.8597 36.1656 22.3897 36.4299C21.9196 36.6942 21.3577 36.8416 20.7421 36.8397L7.64787 36.7984C7.03222 36.7965 6.47126 36.6455 6.01377 36.3783L6.00292 36.3783C5.53455 36.111 5.13174 35.6948 4.82967 35.1595C4.53027 34.6351 4.38284 34.0841 4.38458 33.5309C4.38631 32.9803 4.53725 32.4193 4.83992 31.905L12.1644 19.3219L12.1645 19.3138L19.4754 6.71981C19.7809 6.1973 20.1862 5.79446 20.6671 5.51933C21.1372 5.25505 21.6882 5.10759 22.3147 5.10956C22.8924 5.11138 23.4263 5.24327 23.8676 5.47519C23.8947 5.49154 23.9218 5.51062 23.9489 5.52155C24.4253 5.79697 24.839 6.21323 25.1303 6.72947C25.7156 7.75924 27.0299 8.11324 28.0542 7.52792C29.0839 6.94262 29.438 5.62833 28.8526 4.60672C28.1675 3.4085 27.2239 2.45898 26.1113 1.81269C26.068 1.78543 26.022 1.75546 25.9651 1.739C24.874 1.12804 23.6328 0.801386 22.3175 0.797243C20.956 0.792955 19.6693 1.13877 18.5363 1.78883L18.5254 1.7888C17.4114 2.42808 16.4619 3.37163 15.7693 4.56551L8.45565 17.1405L1.13377 29.7425C0.438413 30.9364 0.08721 32.2209 0.0831268 33.5173C0.0790694 34.8056 0.422166 36.0949 1.10997 37.3013Z" fill="#1E0A51"/>
</g>
<mask id="mask1_571_3005" style="mask-type:luminance" maskUnits="userSpaceOnUse" x="14" y="11" width="31" height="31">
<path d="M14.3049 11.3574L44.4124 11.4522L44.3186 41.2152L14.2112 41.1204L14.3049 11.3574Z" fill="white"/>
</mask>
<g mask="url(#mask1_571_3005)">
<path fill-rule="evenodd" clip-rule="evenodd" d="M33.5651 41.1815L36.7573 41.1916C38.1161 41.1959 39.4056 40.8503 40.5385 40.2028C41.6715 39.5528 42.6209 38.6174 43.3055 37.4342C43.3326 37.3882 43.3626 37.3422 43.379 37.2961C44.0281 36.1401 44.3522 34.8989 44.3561 33.6568C44.3602 32.3712 44.0142 31.0818 43.3293 29.8836L35.2184 15.7168C34.5333 14.5186 33.587 13.5691 32.477 12.9228L32.4689 12.9228C31.34 12.2656 30.0528 11.9117 28.6914 11.9074C27.3326 11.9031 26.0432 12.2489 24.9102 12.899C23.7853 13.5464 22.8358 14.4818 22.1432 15.6757L14.9113 28.1126C14.7177 28.451 14.6244 28.8114 14.6232 29.1776C14.6209 29.9234 15.0064 30.6406 15.6941 31.0388C16.7228 31.6305 18.0285 31.2848 18.6203 30.256L25.8494 17.8191C26.1548 17.2966 26.5629 16.8857 27.0302 16.6186C27.5003 16.3543 28.0621 16.2096 28.6778 16.2116C29.2935 16.2135 29.8544 16.3618 30.3146 16.629C30.7911 16.9071 31.2048 17.3234 31.496 17.8369L39.6068 32.0064C39.9091 32.5308 40.0563 33.0845 40.0546 33.6432C40.0529 34.1694 39.9211 34.6924 39.6539 35.1879C39.6347 35.215 39.6158 35.242 39.5965 35.2691C39.2832 35.8024 38.8776 36.2161 38.4157 36.4804C37.9483 36.7448 37.3864 36.8922 36.7709 36.8902L33.5787 36.8802C32.3935 36.8764 31.4249 37.8389 31.4212 39.024C31.4174 40.2095 32.3691 41.1778 33.5651 41.1815Z" fill="#46219B"/>
</g>
<path d="M61.7621 27.7751C60.7537 27.7719 59.8966 27.6182 59.1867 27.3138C58.4813 27.0095 57.9094 26.599 57.467 26.0822C57.0245 25.5611 56.6974 24.9603 56.4863 24.2843C56.2797 23.6084 56.1797 22.895 56.1821 22.142C56.1844 21.4089 56.2888 20.7029 56.4997 20.0282C56.715 19.3537 57.0459 18.7549 57.4917 18.2276C57.9375 17.7026 58.5164 17.289 59.2281 16.9892C59.9447 16.6849 60.8068 16.5321 61.8152 16.5353C63.0461 16.5391 64.0451 16.7111 64.8079 17.0512C65.5711 17.3912 66.1427 17.8972 66.5272 18.5671C66.9161 19.2325 67.1444 20.0507 67.2125 21.0216L64.7066 21.0137C64.6382 20.2205 64.3868 19.6088 63.9573 19.181C63.5323 18.7531 62.8244 18.5377 61.8358 18.5346C60.7629 18.5312 59.9799 18.8353 59.4871 19.4424C58.992 20.0517 58.745 20.955 58.7412 22.1501C58.7375 23.3296 58.9656 24.2277 59.4258 24.8445C59.8901 25.4568 60.66 25.7635 61.733 25.7669C62.7636 25.7702 63.5042 25.5504 63.9563 25.1075C64.4066 24.6602 64.6661 24.0169 64.7355 23.1818L67.2588 23.1898C67.1778 24.2203 66.9464 25.077 66.5665 25.7555C66.1845 26.4362 65.6034 26.9431 64.8204 27.2783C64.0418 27.6135 63.0239 27.7791 61.7621 27.7751Z" fill="#1E0A51"/>
<path d="M76.0626 16.8555L78.7814 16.8641L74.7419 24.3062L74.7317 27.5405L72.2881 27.5328L72.2982 24.2985L68.288 16.8311L71.0156 16.8396L72.7545 20.5592C72.8823 20.8617 73.0101 21.1598 73.1338 21.449C73.2616 21.7337 73.3828 22.0273 73.4951 22.3297C73.6207 22.028 73.7482 21.7352 73.88 21.4513C74.01 21.1629 74.1441 20.8657 74.2826 20.564L76.0626 16.8555Z" fill="#1E0A51"/>
<path d="M87.0033 22.0702C87.4517 22.1316 87.8555 22.2595 88.2105 22.4561C88.5654 22.6482 88.8419 22.9246 89.0429 23.285C89.2417 23.6477 89.3424 24.1123 89.3406 24.681C89.3378 25.5828 89.0445 26.2928 88.4634 26.8107C87.8864 27.3243 87.0236 27.5792 85.8754 27.5756L80.0287 27.5572L80.0624 16.8682L86.0245 16.8869C86.7887 16.8893 87.4036 17.0112 87.8713 17.2482C88.3438 17.4873 88.6873 17.8083 88.8992 18.211C89.1112 18.6093 89.2164 19.0517 89.2148 19.536C89.2124 20.3178 88.9929 20.9036 88.5605 21.2932C88.1329 21.6828 87.6123 21.9433 87.0033 22.0702ZM85.299 18.7328L82.5002 18.724L82.4921 21.283L85.2109 21.2915C85.7439 21.2932 86.1176 21.1766 86.3315 20.9397C86.5454 20.7049 86.653 20.3942 86.6542 20.0077C86.6555 19.599 86.5543 19.2854 86.3551 19.0649C86.1537 18.8466 85.801 18.7344 85.299 18.7328ZM85.339 25.708C85.8835 25.7097 86.2638 25.582 86.4778 25.3206C86.6962 25.0614 86.8083 24.733 86.8095 24.3354C86.8109 23.9044 86.6899 23.5619 86.4483 23.3124C86.205 23.0584 85.7922 22.9283 85.2058 22.9264L82.487 22.9179L82.4782 25.699L85.339 25.708Z" fill="#1E0A51"/>
<path d="M93.3556 25.6532L99.3534 25.6721L99.3473 27.6179L90.9062 27.5913L90.9398 16.9023L99.3275 16.9288L99.3214 18.8569L93.377 18.8381L93.3695 21.2372L98.834 21.2544L98.8283 23.067L93.3638 23.0498L93.3556 25.6532Z" fill="#1E0A51"/>
<path d="M109.97 25.0482L109.968 25.7679C109.966 26.2121 109.985 26.5743 110.026 26.8521C110.072 27.1321 110.122 27.3988 110.175 27.6522L107.731 27.6445C107.665 27.4489 107.613 27.2043 107.574 26.9065C107.539 26.6043 107.522 26.2355 107.524 25.7957L107.526 25.236C107.528 24.6317 107.365 24.1936 107.041 23.9194C106.715 23.6474 106.287 23.5083 105.754 23.5066L103.55 23.4997L103.537 27.6313L101.076 27.6236L101.11 16.9346L106.752 16.9523C107.929 16.956 108.813 17.232 109.397 17.7781C109.987 18.3198 110.282 19.0227 110.279 19.8867C110.277 20.6398 110.057 21.261 109.625 21.7506C109.197 22.2357 108.665 22.5451 108.031 22.6786C108.398 22.7641 108.726 22.894 109.016 23.0726C109.311 23.2512 109.544 23.4986 109.716 23.8123C109.886 24.1216 109.972 24.5328 109.97 25.0482ZM106.186 21.7575C106.741 21.7593 107.137 21.6317 107.369 21.3703C107.601 21.1045 107.718 20.7272 107.719 20.2341C107.721 19.7854 107.6 19.4407 107.358 19.2023C107.121 18.966 106.733 18.8449 106.195 18.8432L103.565 18.8349L103.556 21.7493L106.186 21.7575Z" fill="#1E0A51"/>
<path d="M111.63 24.1383L114.003 24.1457C114.037 24.7145 114.242 25.1861 114.62 25.5605C114.997 25.9348 115.609 26.1234 116.458 26.126C117.275 26.1286 117.838 26.0037 118.147 25.7493C118.454 25.497 118.611 25.1532 118.613 24.72C118.615 23.9514 118.139 23.499 117.186 23.365L114.833 23.0555C113.884 22.9347 113.155 22.6148 112.641 22.0978C112.132 21.5809 111.88 20.8848 111.883 20.0074C111.886 19.0433 112.255 18.2492 112.993 17.6296C113.728 17.0099 114.846 16.7024 116.345 16.7072C117.416 16.7105 118.284 16.871 118.947 17.1863C119.608 17.4971 120.102 17.9141 120.427 18.4349C120.75 18.9579 120.935 19.5338 120.981 20.1604L118.582 20.1528C118.517 19.6506 118.303 19.2523 117.938 18.9602C117.576 18.6636 117.044 18.5131 116.34 18.5109C115.682 18.5088 115.184 18.6316 114.846 18.8794C114.507 19.1226 114.338 19.4531 114.336 19.8729C114.335 20.1817 114.432 20.4419 114.627 20.6558C114.826 20.8696 115.15 21.0039 115.594 21.0586L117.824 21.3411C119.995 21.5968 121.08 22.6464 121.075 24.4879C121.072 25.1876 120.913 25.8002 120.598 26.3257C120.287 26.8467 119.791 27.2472 119.11 27.5294C118.434 27.8116 117.536 27.9509 116.417 27.9474C115.539 27.9446 114.8 27.8379 114.196 27.6294C113.593 27.4143 113.105 27.1284 112.733 26.7718C112.365 26.4108 112.095 26.0012 111.919 25.5431C111.743 25.0871 111.647 24.6181 111.63 24.1383Z" fill="#1E0A51"/>
<path d="M125.104 25.7538L131.101 25.7726L131.095 27.7185L122.654 27.6919L122.688 17.0029L131.075 17.0293L131.069 18.9574L125.125 18.9387L125.118 21.3378L130.582 21.355L130.576 23.1676L125.112 23.1504L125.104 25.7538Z" fill="#1E0A51"/>
<path d="M138.208 28.0163C137.2 28.0132 136.343 27.8594 135.633 27.555C134.927 27.2507 134.355 26.8402 133.913 26.3234C133.47 25.8023 133.143 25.2015 132.932 24.5255C132.726 23.8496 132.626 23.1362 132.628 22.3832C132.63 21.6502 132.735 20.9441 132.946 20.2695C133.161 19.5949 133.492 18.9961 133.938 18.4688C134.384 17.9438 134.962 17.5302 135.674 17.2304C136.39 16.9261 137.253 16.7733 138.261 16.7765C139.492 16.7804 140.491 16.9523 141.254 17.2924C142.017 17.6324 142.588 18.1385 142.973 18.8083C143.362 19.4737 143.59 20.2919 143.658 21.2628L141.153 21.255C141.084 20.4617 140.833 19.85 140.403 19.4222C139.978 18.9943 139.27 18.7789 138.282 18.7758C137.209 18.7724 136.426 19.0765 135.933 19.6836C135.438 20.2929 135.191 21.1962 135.187 22.3913C135.183 23.5708 135.412 24.4689 135.871 25.0857C136.336 25.698 137.106 26.0047 138.179 26.0081C139.21 26.0114 139.95 25.7916 140.402 25.3488C140.852 24.9015 141.112 24.2581 141.181 23.4231L143.705 23.431C143.624 24.4615 143.392 25.3182 143.013 25.9967C142.631 26.6774 142.049 27.1843 141.266 27.5195C140.488 27.8547 139.47 28.0203 138.208 28.0163Z" fill="#1E0A51"/>
<path d="M144.647 27.7613L144.654 25.6377L147.035 25.6452L147.028 27.7688L144.647 27.7613Z" fill="#1E0A51"/>
<path d="M156.32 17.1082L158.666 17.1156L158.632 27.8046L154.58 27.7918L151.262 20.4865C151.143 20.2085 151.035 19.9327 150.936 19.6592C150.835 19.3812 150.743 19.1076 150.655 18.8408L150.626 27.7794L148.281 27.772L148.314 17.083L152.366 17.0958L155.719 24.5167C155.812 24.7436 155.909 24.9883 156.01 25.2551C156.109 25.5176 156.204 25.7867 156.292 26.0646L156.32 17.1082Z" fill="#46219B"/>
<path d="M162.941 25.8729L168.939 25.8918L168.933 27.8377L160.491 27.8111L160.525 17.1221L168.913 17.1485L168.907 19.0766L162.963 19.0579L162.955 21.4569L168.42 21.4741L168.414 23.2867L162.949 23.2695L162.941 25.8729Z" fill="#46219B"/>
<path d="M179.776 17.1822L179.77 19.1103L176.252 19.0992L176.224 27.8601L173.781 27.8524L173.808 19.0915L170.289 19.0804L170.296 17.1523L179.776 17.1822Z" fill="#1E0A51"/>
</g>
<defs>
<clipPath id="clip0_571_3005">
<rect width="180" height="40.2049" fill="white" transform="translate(0.182861 0.979492) rotate(0.180458)"/>
</clipPath>
</defs>
</svg>
