<svg width="180" height="57" viewBox="0 0 180 57" fill="none" xmlns="http://www.w3.org/2000/svg">
<path d="M63.241 11.1383C62.3556 13.4308 61.3122 15.6443 60.1185 17.7628C58.9881 19.7866 57.7153 21.7312 56.324 23.581C54.7667 25.6522 53.0592 27.5968 51.2173 29.4071H51.2094C48.1185 32.5059 42.7272 37.8972 35.3438 40.1818C35.2964 40.1976 35.249 40.2134 35.2094 40.2213C35.1699 40.2293 35.1225 40.2451 35.0909 40.253C35.0197 40.2688 34.9723 40.2846 34.9723 40.2846C34.5533 40.4032 34.1897 40.498 33.9051 40.5771C34.2766 40.5929 34.8379 40.6087 35.5177 40.5929C39.8102 40.5376 43.1936 39.6206 45.0434 39.0119C47.0434 38.3557 48.9485 37.5178 50.7509 36.5059C49.992 38.3636 48.1501 42.1502 44.1106 45.2332C38.4426 49.5652 32.3004 49.5573 30.4585 49.4862C32.8142 50.2372 35.2806 50.7273 37.8339 50.917C35.1225 52.9961 32.2134 54.8142 29.1225 56.332C24.4031 54.0158 20.0869 51.004 16.3083 47.415C15.2727 46.4427 14.2767 45.415 13.328 44.3557C10.7747 41.5099 8.52963 38.3794 6.64031 35.0277C4.53754 31.2806 2.88537 27.249 1.75494 22.996C0.608695 18.7352 0 14.2372 0 9.59684C0 6.31621 0.300395 3.11462 0.885374 0C3.41501 3.17787 6.54545 5.85771 10.0948 7.88933C10.5059 8.14229 10.9328 8.37945 11.3755 8.58498C11.3913 8.59289 11.415 8.60079 11.4308 8.6166C11.9051 8.83794 12.3952 9.01976 12.9012 9.17787C12.9012 9.17787 12.917 9.17787 12.9249 9.17787C13.0751 9.2253 13.2174 9.26482 13.3597 9.30435C13.5336 9.33597 13.7233 9.35968 13.9051 9.35968C15.4703 9.35968 16.7431 8.08696 16.7431 6.52174C16.7431 6.18182 16.6877 5.86561 16.5771 5.56522C17.328 6.96443 18.245 8.25296 19.2964 9.41502C20.0948 10.3004 20.9644 11.1067 21.913 11.8419C22.8537 12.5692 23.8577 13.2095 24.9249 13.7628C26.0158 14.332 27.1699 14.7984 28.3636 15.1542C30.0553 17.4941 32.5454 19.2095 35.4466 19.9051C35.4782 20.1739 35.4861 20.4506 35.4861 20.7273C35.4861 22.2846 35.0197 23.7312 34.2055 24.9407C33.4229 24.664 32.577 24.5138 31.6996 24.5138C30.9486 24.5138 30.2292 24.6245 29.5494 24.83C27.913 24.0237 26.0711 23.5731 24.1264 23.5731C23.0672 23.5731 22.0395 23.7075 21.0593 23.9605C20.1344 24.1976 19.2569 24.5455 18.4269 24.9802C18.4427 24.8775 18.4427 24.7747 18.4427 24.664C18.4427 23.0988 17.1699 21.8261 15.6047 21.8261C14.0395 21.8261 12.7668 23.0988 12.7668 24.664C12.7668 25.9368 13.6126 27.0198 14.7589 27.3755C14.8854 27.415 15.0118 27.4466 15.1541 27.4625C15.2174 27.4783 15.2885 27.4783 15.3597 27.4862C15.3597 27.4862 15.3755 27.4862 15.3834 27.4862C18.3715 28.0237 21.4545 28.3004 24.6008 28.3004C24.7826 28.3004 24.9644 28.3004 25.1462 28.2925C25.7628 28.2925 26.3794 28.2767 26.9881 28.2451C27.9762 28.2055 28.9486 28.1344 29.9209 28.0316C31.0276 27.9209 32.1264 27.7708 33.2173 27.5889C34.5296 27.3755 35.8339 27.1067 37.1067 26.7905C44.6403 24.9328 51.5256 21.4387 57.3675 16.6957C57.5019 16.5929 57.6363 16.4822 57.7707 16.3715C58.5217 15.7549 59.2489 15.1146 59.9604 14.4427C61.0987 13.3913 62.1817 12.2925 63.2173 11.1462L63.241 11.1383Z" fill="url(#paint0_linear_43_6)"/>
<path d="M20.7435 14.9803L24.9728 17.2965C24.9728 17.2965 25.0123 17.3202 25.0202 17.3439L26.1111 19.0356C26.1743 19.1305 26.1032 19.257 25.9846 19.2491L23.289 19.0831C23.2494 19.0831 23.2099 19.0593 23.1862 19.0198L20.5617 15.1779C20.4827 15.0593 20.617 14.9091 20.7435 14.9803Z" fill="white"/>
<path d="M52.2844 8.89328L52.2054 7.92095L51.3674 7.42293C46.4979 4.52965 38.5374 1.08301 28.2687 1.08301C25.4149 1.08301 21.8339 1.35969 17.8418 2.3004L21.0434 5.50198C23.7627 5.01977 26.2212 4.86166 28.2608 4.86166C37.0908 4.86166 44.0552 7.64427 48.5611 10.1818C48.656 12.0158 48.6718 14.8854 48.2054 18.253L52.2212 16.3636C52.5058 13.0435 52.3951 10.3874 52.2765 8.90119L52.2844 8.89328Z" fill="url(#paint1_linear_43_6)"/>
<path d="M85.2962 35.8258C84.1341 35.8258 83.2092 35.6124 82.5373 35.1934C81.8575 34.7665 81.3832 34.1736 81.1065 33.4068C80.8298 32.64 80.6875 31.7389 80.6875 30.7033V25.1618C80.6875 24.1025 80.8298 23.1855 81.1065 22.4187C81.3832 21.6519 81.8654 21.059 82.5373 20.6479C83.2092 20.2369 84.1341 20.0234 85.2962 20.0234C86.4582 20.0234 87.3199 20.2132 87.9602 20.5847C88.6005 20.9562 89.0511 21.478 89.3199 22.1499C89.5887 22.8219 89.7152 23.5887 89.7152 24.4661V25.7942H86.395V24.2606C86.395 23.9602 86.3792 23.6677 86.3476 23.391C86.316 23.1143 86.2211 22.8851 86.0709 22.6954C85.9207 22.5136 85.6598 22.4187 85.2962 22.4187C84.9326 22.4187 84.6796 22.5136 84.5057 22.7033C84.3318 22.893 84.229 23.1302 84.1816 23.4147C84.1341 23.6993 84.1183 23.9997 84.1183 24.3159V31.5412C84.1183 31.8811 84.1499 32.1974 84.2053 32.4819C84.2606 32.7665 84.3792 32.9958 84.5452 33.1618C84.7112 33.3357 84.9642 33.4147 85.2962 33.4147C85.6519 33.4147 85.9049 33.3199 86.0551 33.1381C86.2053 32.9562 86.3001 32.7191 86.3397 32.4266C86.3792 32.1341 86.395 31.8416 86.395 31.5333V29.9207H89.7152V31.2487C89.7152 32.1183 89.5887 32.9009 89.3278 33.5887C89.0669 34.2764 88.6163 34.8219 87.9839 35.2171C87.3436 35.6124 86.4503 35.8179 85.2962 35.8179V35.8258Z" fill="url(#paint2_linear_43_6)"/>
<path d="M91.7075 38.7821V36.6398C92.1028 36.6398 92.4269 36.6161 92.6878 36.5608C92.9486 36.5134 93.1463 36.4185 93.2727 36.2762C93.4071 36.1339 93.4704 35.9442 93.4704 35.707C93.4704 35.4936 93.4308 35.2327 93.3597 34.9165C93.2806 34.6082 93.1937 34.2525 93.0751 33.8651L90.498 24.624H93.3992L94.7826 30.9639L95.8261 24.624H98.751L96.2293 35.8572C96.0633 36.6161 95.8024 37.209 95.4546 37.628C95.0988 38.0549 94.664 38.3473 94.1581 38.5213C93.6443 38.6952 93.0672 38.7742 92.419 38.7742H91.7154L91.7075 38.7821Z" fill="url(#paint3_linear_43_6)"/>
<path d="M105.352 35.7858C104.949 35.7858 104.545 35.691 104.15 35.5091C103.755 35.3273 103.368 35.0744 103.004 34.7582V35.5961H99.9131V20.2285H103.004V25.4301C103.383 25.0981 103.779 24.853 104.19 24.687C104.601 24.521 105.004 24.442 105.391 24.442C105.81 24.442 106.166 24.521 106.466 24.687C106.767 24.853 107.004 25.0823 107.194 25.3827C107.383 25.6831 107.526 26.023 107.613 26.4182C107.7 26.8135 107.747 27.2246 107.747 27.6673V32.3945C107.747 33.0744 107.652 33.6752 107.47 34.1811C107.289 34.687 107.02 35.0823 106.664 35.3669C106.308 35.6514 105.874 35.7937 105.352 35.7937V35.7858ZM103.85 33.7937C104.055 33.7937 104.213 33.7384 104.324 33.6198C104.435 33.5012 104.522 33.359 104.569 33.1771C104.617 32.9953 104.648 32.7898 104.648 32.5605V27.438C104.648 27.2246 104.625 27.0269 104.569 26.8609C104.514 26.6949 104.443 26.5526 104.332 26.4499C104.221 26.3471 104.079 26.2997 103.889 26.2997C103.723 26.2997 103.573 26.3313 103.423 26.4024C103.273 26.4736 103.138 26.5605 102.996 26.6554V33.4854C103.138 33.5724 103.281 33.6435 103.423 33.7068C103.565 33.7621 103.708 33.7937 103.85 33.7937Z" fill="url(#paint4_linear_43_6)"/>
<path d="M113.091 35.7863C112.292 35.7863 111.612 35.644 111.043 35.3594C110.474 35.0748 110.039 34.6558 109.731 34.1104C109.431 33.557 109.272 32.9009 109.272 32.1262V28.1025C109.272 27.3199 109.423 26.6558 109.731 26.1104C110.031 25.5649 110.474 25.1538 111.051 24.8693C111.628 24.5847 112.308 24.4424 113.091 24.4424C113.873 24.4424 114.577 24.5847 115.114 24.8614C115.652 25.138 116.055 25.5491 116.332 26.0946C116.601 26.64 116.743 27.3119 116.743 28.1025V30.3001H112.34V32.4029C112.34 32.6795 112.371 32.9088 112.435 33.0827C112.498 33.2566 112.585 33.3831 112.703 33.4621C112.814 33.5412 112.948 33.5728 113.099 33.5728C113.249 33.5728 113.383 33.5412 113.51 33.4701C113.636 33.3989 113.723 33.2882 113.794 33.138C113.865 32.9878 113.897 32.7744 113.897 32.5135V31.3594H116.743V32.4187C116.743 33.5333 116.419 34.3712 115.778 34.9325C115.138 35.4938 114.245 35.7784 113.106 35.7784L113.091 35.7863ZM112.332 28.8614H113.889V27.7625C113.889 27.4701 113.857 27.2408 113.786 27.0827C113.715 26.9167 113.62 26.806 113.502 26.7428C113.383 26.6795 113.241 26.6479 113.075 26.6479C112.925 26.6479 112.79 26.6874 112.687 26.7586C112.577 26.8376 112.498 26.9641 112.435 27.1459C112.371 27.3278 112.34 27.5886 112.34 27.9365V28.8693L112.332 28.8614Z" fill="url(#paint5_linear_43_6)"/>
<path d="M118.458 35.597V24.6325H121.549V26.4507C121.905 25.8183 122.261 25.3361 122.608 24.9962C122.964 24.6641 123.391 24.4902 123.897 24.4902C124 24.4902 124.087 24.4902 124.166 24.4981C124.245 24.4981 124.308 24.5219 124.371 24.5456V27.6207C124.229 27.5574 124.079 27.5021 123.905 27.4626C123.731 27.4151 123.557 27.3993 123.367 27.3993C123.012 27.3993 122.687 27.4942 122.379 27.6839C122.079 27.8736 121.794 28.1345 121.541 28.4586V35.5891H118.45L118.458 35.597Z" fill="url(#paint6_linear_43_6)"/>
<path d="M129.067 35.7862C128.103 35.7862 127.304 35.5727 126.664 35.1379C126.024 34.7111 125.502 34.0075 125.099 33.0352L127.201 32.1024C127.407 32.5925 127.644 32.9877 127.913 33.2723C128.182 33.5569 128.482 33.6992 128.814 33.6992C129.051 33.6992 129.233 33.6518 129.352 33.549C129.47 33.4462 129.533 33.3119 129.533 33.13C129.533 32.8375 129.423 32.5767 129.201 32.3316C128.98 32.0945 128.585 31.7387 128.016 31.2723L127.217 30.6083C126.632 30.1182 126.174 29.636 125.842 29.1775C125.51 28.719 125.336 28.1419 125.336 27.4621C125.336 26.8692 125.494 26.3395 125.802 25.8889C126.111 25.4304 126.53 25.0826 127.043 24.8296C127.565 24.5767 128.118 24.4502 128.711 24.4502C129.62 24.4502 130.379 24.6953 130.988 25.1933C131.597 25.6913 132.024 26.379 132.277 27.2802L130.245 28.1893C130.166 27.9522 130.063 27.7071 129.921 27.47C129.779 27.2328 129.62 27.0273 129.431 26.8613C129.241 26.6953 129.028 26.6162 128.782 26.6162C128.577 26.6162 128.419 26.6715 128.3 26.7901C128.182 26.9008 128.118 27.0589 128.118 27.2486C128.118 27.4858 128.253 27.7466 128.53 28.0233C128.798 28.3 129.178 28.6399 129.66 29.0273L130.435 29.7071C130.751 29.9759 131.059 30.2605 131.367 30.5609C131.668 30.8613 131.921 31.2012 132.118 31.5648C132.316 31.9285 132.411 32.3474 132.411 32.8138C132.411 33.4462 132.253 33.9838 131.937 34.4344C131.62 34.885 131.209 35.2249 130.696 35.4462C130.182 35.6676 129.636 35.7862 129.051 35.7862H129.067Z" fill="url(#paint7_linear_43_6)"/>
<path d="M137.319 35.7863C136.521 35.7863 135.841 35.644 135.272 35.3594C134.703 35.0748 134.268 34.6558 133.959 34.1104C133.659 33.557 133.501 32.9009 133.501 32.1262V28.1025C133.501 27.3199 133.651 26.6558 133.959 26.1104C134.26 25.5649 134.703 25.1538 135.28 24.8693C135.857 24.5847 136.537 24.4424 137.319 24.4424C138.102 24.4424 138.805 24.5847 139.343 24.8614C139.88 25.138 140.284 25.5491 140.56 26.0946C140.829 26.64 140.971 27.3119 140.971 28.1025V30.3001H136.568V32.4029C136.568 32.6795 136.6 32.9088 136.663 33.0827C136.726 33.2566 136.813 33.3831 136.932 33.4621C137.042 33.5412 137.177 33.5728 137.327 33.5728C137.477 33.5728 137.612 33.5412 137.738 33.4701C137.857 33.3989 137.952 33.2882 138.023 33.138C138.094 32.9878 138.125 32.7744 138.125 32.5135V31.3594H140.971V32.4187C140.971 33.5333 140.647 34.3712 140.007 34.9325C139.367 35.4938 138.473 35.7784 137.335 35.7784L137.319 35.7863ZM136.56 28.8614H138.118V27.7625C138.118 27.4701 138.086 27.2408 138.015 27.0827C137.944 26.9167 137.849 26.806 137.73 26.7428C137.612 26.6795 137.469 26.6479 137.303 26.6479C137.153 26.6479 137.019 26.6874 136.916 26.7586C136.805 26.8376 136.726 26.9641 136.663 27.1459C136.6 27.3278 136.568 27.5886 136.568 27.9365V28.8693L136.56 28.8614Z" fill="url(#paint8_linear_43_6)"/>
<path d="M146.22 35.7863C145.422 35.7863 144.742 35.644 144.181 35.3515C143.619 35.059 143.185 34.64 142.884 34.1025C142.584 33.557 142.426 32.9009 142.426 32.1262V28.1025C142.426 27.3199 142.576 26.6558 142.884 26.1104C143.185 25.5649 143.619 25.1538 144.181 24.8693C144.742 24.5847 145.422 24.4424 146.22 24.4424C147.019 24.4424 147.675 24.561 148.22 24.806C148.774 25.0432 149.193 25.4068 149.485 25.8969C149.778 26.387 149.92 27.0036 149.92 27.7467V28.9009H146.94V27.6519C146.94 27.3594 146.908 27.138 146.853 26.9799C146.797 26.8218 146.71 26.7112 146.608 26.6479C146.497 26.5847 146.37 26.5531 146.22 26.5531C146.07 26.5531 145.944 26.5926 145.841 26.6795C145.738 26.7586 145.667 26.893 145.612 27.0748C145.564 27.2566 145.533 27.5175 145.533 27.8416V32.395C145.533 32.8851 145.596 33.225 145.714 33.3989C145.833 33.5728 146.007 33.6677 146.236 33.6677C146.402 33.6677 146.536 33.6361 146.631 33.5649C146.734 33.4938 146.805 33.3831 146.861 33.225C146.916 33.0669 146.94 32.8534 146.94 32.5926V31.1301H149.92V32.4582C149.92 33.1934 149.77 33.81 149.477 34.308C149.177 34.806 148.758 35.1776 148.204 35.4305C147.651 35.6756 146.995 35.8021 146.22 35.8021V35.7863Z" fill="url(#paint9_linear_43_6)"/>
<path d="M151.438 35.5968V32.6719H154.363V35.5968H151.438Z" fill="url(#paint10_linear_43_6)"/>
<path d="M156.157 35.5965V24.6321H159.248V25.7309C159.651 25.3278 160.07 25.0116 160.513 24.7823C160.948 24.5531 161.406 24.4424 161.888 24.4424C162.347 24.4424 162.718 24.5531 163.019 24.7744C163.319 24.9957 163.541 25.2961 163.691 25.6835C163.841 26.0708 163.92 26.5056 163.92 27.0036V35.5965H160.845V27.4384C160.845 27.1697 160.798 26.972 160.711 26.8297C160.624 26.6874 160.458 26.6242 160.22 26.6242C160.094 26.6242 159.944 26.6558 159.778 26.727C159.612 26.7981 159.43 26.893 159.256 27.0195V35.5965H156.165H156.157Z" fill="url(#paint11_linear_43_6)"/>
<path d="M169.367 35.7863C168.569 35.7863 167.889 35.644 167.32 35.3594C166.75 35.0748 166.316 34.6558 166.007 34.1104C165.707 33.557 165.549 32.9009 165.549 32.1262V28.1025C165.549 27.3199 165.699 26.6558 166.007 26.1104C166.308 25.5649 166.75 25.1538 167.327 24.8693C167.905 24.5847 168.584 24.4424 169.367 24.4424C170.15 24.4424 170.853 24.5847 171.391 24.8614C171.928 25.138 172.331 25.5491 172.608 26.0946C172.877 26.64 173.019 27.3119 173.019 28.1025V30.3001H168.616V32.4029C168.616 32.6795 168.648 32.9088 168.711 33.0827C168.774 33.2566 168.861 33.3831 168.98 33.4621C169.09 33.5412 169.225 33.5728 169.375 33.5728C169.525 33.5728 169.659 33.5412 169.786 33.4701C169.912 33.3989 169.999 33.2882 170.071 33.138C170.142 32.9878 170.173 32.7744 170.173 32.5135V31.3594H173.019V32.4187C173.019 33.5333 172.695 34.3712 172.055 34.9325C171.407 35.4938 170.521 35.7784 169.383 35.7784L169.367 35.7863ZM168.608 28.8614H170.165V27.7625C170.165 27.4701 170.134 27.2408 170.063 27.0827C169.992 26.9167 169.897 26.806 169.778 26.7428C169.659 26.6795 169.517 26.6479 169.351 26.6479C169.201 26.6479 169.067 26.6874 168.964 26.7586C168.853 26.8376 168.774 26.9641 168.711 27.1459C168.648 27.3278 168.616 27.5886 168.616 27.9365V28.8693L168.608 28.8614Z" fill="url(#paint12_linear_43_6)"/>
<path d="M178.127 35.7071C177.304 35.7071 176.672 35.5885 176.229 35.3434C175.787 35.1063 175.478 34.7505 175.312 34.292C175.146 33.8335 175.059 33.2723 175.059 32.6161V26.6557H174V24.6241H175.059V21.2881H178.19V24.6241H179.747V26.6557H178.19V32.3078C178.19 32.6241 178.285 32.8533 178.466 32.9877C178.648 33.13 178.878 33.1932 179.162 33.1932C179.328 33.1932 179.478 33.1853 179.621 33.1616C179.763 33.1458 179.889 33.13 180 33.1142V35.541C179.834 35.5648 179.573 35.5964 179.225 35.6359C178.878 35.6754 178.514 35.6912 178.142 35.6912L178.127 35.7071Z" fill="url(#paint13_linear_43_6)"/>
<defs>
<linearGradient id="paint0_linear_43_6" x1="21.5503" y1="-9.18457" x2="25.2648" y2="64.1242" gradientUnits="userSpaceOnUse">
<stop stop-color="#1A084B"/>
<stop offset="1" stop-color="#4A24A5"/>
</linearGradient>
<linearGradient id="paint1_linear_43_6" x1="29.6183" y1="-1.71644" x2="30.2509" y2="20.6675" gradientUnits="userSpaceOnUse">
<stop stop-color="#1A084B"/>
<stop offset="1" stop-color="#4A24A5"/>
</linearGradient>
<linearGradient id="paint2_linear_43_6" x1="83.7638" y1="17.447" x2="85.7966" y2="37.8621" gradientUnits="userSpaceOnUse">
<stop stop-color="#1A084B"/>
<stop offset="1" stop-color="#4A24A5"/>
</linearGradient>
<linearGradient id="paint3_linear_43_6" x1="93.3104" y1="22.3156" x2="95.096" y2="40.6136" gradientUnits="userSpaceOnUse">
<stop stop-color="#1A084B"/>
<stop offset="1" stop-color="#4A24A5"/>
</linearGradient>
<linearGradient id="paint4_linear_43_6" x1="102.583" y1="17.6907" x2="104.849" y2="37.7427" gradientUnits="userSpaceOnUse">
<stop stop-color="#1A084B"/>
<stop offset="1" stop-color="#4A24A5"/>
</linearGradient>
<linearGradient id="paint5_linear_43_6" x1="111.818" y1="22.5928" x2="113.087" y2="37.2837" gradientUnits="userSpaceOnUse">
<stop stop-color="#1A084B"/>
<stop offset="1" stop-color="#4A24A5"/>
</linearGradient>
<linearGradient id="paint6_linear_43_6" x1="120.468" y1="22.6794" x2="121.997" y2="37.0073" gradientUnits="userSpaceOnUse">
<stop stop-color="#1A084B"/>
<stop offset="1" stop-color="#4A24A5"/>
</linearGradient>
<linearGradient id="paint7_linear_43_6" x1="127.59" y1="22.6019" x2="128.885" y2="37.278" gradientUnits="userSpaceOnUse">
<stop stop-color="#1A084B"/>
<stop offset="1" stop-color="#4A24A5"/>
</linearGradient>
<linearGradient id="paint8_linear_43_6" x1="136.047" y1="22.5928" x2="137.316" y2="37.2837" gradientUnits="userSpaceOnUse">
<stop stop-color="#1A084B"/>
<stop offset="1" stop-color="#4A24A5"/>
</linearGradient>
<linearGradient id="paint9_linear_43_6" x1="144.979" y1="22.5903" x2="146.248" y2="37.302" gradientUnits="userSpaceOnUse">
<stop stop-color="#1A084B"/>
<stop offset="1" stop-color="#4A24A5"/>
</linearGradient>
<linearGradient id="paint10_linear_43_6" x1="152.435" y1="32.195" x2="152.652" y2="35.9988" gradientUnits="userSpaceOnUse">
<stop stop-color="#1A084B"/>
<stop offset="1" stop-color="#4A24A5"/>
</linearGradient>
<linearGradient id="paint11_linear_43_6" x1="158.803" y1="22.6238" x2="159.984" y2="37.0801" gradientUnits="userSpaceOnUse">
<stop stop-color="#1A084B"/>
<stop offset="1" stop-color="#4A24A5"/>
</linearGradient>
<linearGradient id="paint12_linear_43_6" x1="168.094" y1="22.5928" x2="169.363" y2="37.2837" gradientUnits="userSpaceOnUse">
<stop stop-color="#1A084B"/>
<stop offset="1" stop-color="#4A24A5"/>
</linearGradient>
<linearGradient id="paint13_linear_43_6" x1="176.045" y1="18.9372" x2="178.569" y2="37.4046" gradientUnits="userSpaceOnUse">
<stop stop-color="#1A084B"/>
<stop offset="1" stop-color="#4A24A5"/>
</linearGradient>
</defs>
</svg>
