<svg width="127" height="38" viewBox="0 0 127 38" fill="none" xmlns="http://www.w3.org/2000/svg">
<path d="M42.0088 9.33203H53.1865V13.1045H46.2395V18.347H53.1865V22.0362H46.2395V28.7488H42.0088V9.33203ZM55.4846 15.3788H59.4807V18.1804C59.6894 17.2177 60.1164 16.4786 60.7604 15.9613C61.4208 15.4245 62.1539 15.1571 62.9542 15.1571C63.3723 15.1571 63.7208 15.1947 63.9985 15.2679V19.207C63.6 19.156 63.199 19.1284 62.7973 19.1237C61.7004 19.1237 60.8742 19.502 60.3163 20.2605C59.7603 21.0002 59.4807 22.1095 59.4807 23.5896V28.7488H55.4865V15.3788H55.4846ZM70.3066 29.1096C69.0883 29.1096 68.0255 28.8039 67.1203 28.1938C66.2322 27.5838 65.5262 26.7178 65.0834 25.6972C64.6134 24.6256 64.3768 23.4129 64.3768 22.0638C64.3768 20.7322 64.6223 19.5295 65.1094 18.4579C65.5661 17.4226 66.291 16.5471 67.1988 15.9337C68.1204 15.3237 69.1743 15.018 70.3591 15.018C71.2467 15.018 72.0399 15.2222 72.7357 15.6287C73.4316 16.0365 73.9541 16.5915 74.3026 17.2929V15.3788H78.2721V28.7488H74.3026V26.8622C73.9541 27.528 73.4145 28.0729 72.6832 28.4989C71.952 28.9107 71.1347 29.1203 70.3066 29.1096ZM71.456 25.5863C72.4131 25.5863 73.1532 25.2538 73.6758 24.588C74.1983 23.9221 74.4595 23.0803 74.4595 22.0638C74.4595 21.0654 74.1983 20.233 73.6758 19.5671C73.1532 18.9013 72.4131 18.5688 71.456 18.5688C70.5495 18.5688 69.8195 18.8919 69.2622 19.5396C68.7227 20.1873 68.4525 21.0278 68.4525 22.0638C68.4525 23.0998 68.7227 23.9497 69.2622 24.6155C69.8195 25.2632 70.5508 25.5863 71.456 25.5863ZM81.0668 15.3788H85.0628V17.3204C85.3424 16.6351 85.7941 16.0802 86.4203 15.6562C87.0656 15.2323 87.8139 15.018 88.6666 15.018C90.6517 15.018 91.9668 15.8403 92.6102 17.4871C92.9644 16.7406 93.5185 16.1232 94.2036 15.712C94.9361 15.2437 95.7775 15.0039 96.6321 15.018C99.6097 15.018 101.098 16.8293 101.098 20.4547V28.7488H97.0762V21.2313C97.0762 20.3263 96.9193 19.6605 96.6062 19.2346C96.2924 18.81 95.8224 18.5963 95.1955 18.5963C94.5167 18.5963 93.9942 18.8462 93.6286 19.3454C93.263 19.8265 93.0802 20.667 93.0802 21.8696V28.7488H89.0582V21.2038C89.0582 20.2981 88.902 19.6411 88.5882 19.2346C88.2934 18.81 87.831 18.5963 87.2054 18.5963C86.5083 18.5963 85.9769 18.8462 85.6113 19.3454C85.2457 19.8265 85.0628 20.667 85.0628 21.8696V28.7488H81.0681V15.3788H81.0668ZM116.109 21.3704C116.109 21.9428 116.074 22.563 116.003 23.2288H106.707C106.743 24.0982 107.02 24.7626 107.543 25.2262C108.065 25.6878 108.772 25.9196 109.658 25.9196C110.895 25.9196 111.679 25.5212 112.009 24.7264H115.926C115.734 26.0398 115.055 27.1021 113.889 27.9163C112.74 28.7112 111.329 29.1096 109.658 29.1096C107.5 29.1096 105.802 28.4894 104.565 27.2505C103.347 26.011 102.737 24.2829 102.737 22.0638C102.737 20.6213 103.015 19.373 103.573 18.3188C104.111 17.266 104.941 16.4141 105.949 15.878C106.977 15.3055 108.17 15.018 109.529 15.018C110.816 15.018 111.956 15.2861 112.949 15.8229C113.958 16.3597 114.734 17.1081 115.273 18.0696C115.831 19.0323 116.109 20.1322 116.109 21.3704ZM112.164 20.5937C112.147 19.7062 111.912 19.0303 111.459 18.5688C111.007 18.1072 110.353 17.8754 109.5 17.8754C108.647 17.8754 107.969 18.1247 107.463 18.6245C106.976 19.1056 106.724 19.7613 106.705 20.5937H112.164ZM117.871 15.3788H121.867V18.1804C122.076 17.2177 122.503 16.4786 123.147 15.9613C123.772 15.4386 124.545 15.155 125.34 15.1571C125.758 15.1571 126.107 15.1947 126.385 15.2679V19.207C125.986 19.156 125.585 19.1284 125.184 19.1237C124.087 19.1237 123.261 19.502 122.703 20.2605C122.145 21.0002 121.867 22.1095 121.867 23.5896V28.7488H117.871V15.3788Z" fill="#5F5F86"/>
<path d="M0.969116 0.332031H24.1937V12.6654H12.5814L0.969116 0.332031ZM0.969116 12.6654H12.5814L24.1937 24.9987H0.969116V12.6654ZM0.969116 24.9987H12.5814V37.332L0.969116 24.9987Z" fill="#5F5F86"/>
</svg>
