<svg width="127" height="30" viewBox="0 0 127 30" fill="none" xmlns="http://www.w3.org/2000/svg">
<path fill-rule="evenodd" clip-rule="evenodd" d="M100.022 20.7917C103.155 20.7917 105.703 18.1412 105.703 14.8835C105.703 11.6255 103.155 8.9751 100.022 8.9751C96.8898 8.9751 94.3411 11.6255 94.3411 14.8835C94.3411 18.1412 96.8898 20.7917 100.022 20.7917ZM105.703 0.200195H108.395V23.6108H105.703V21.2733C104.15 22.7706 102.147 23.5908 100.022 23.5908C95.4058 23.5908 91.65 19.6846 91.65 14.8835C91.65 10.082 95.4058 6.17599 100.022 6.17599C102.147 6.17599 104.15 6.99607 105.703 8.49345V0.200195ZM44.206 20.6886C47.3385 20.6886 49.887 18.0382 49.887 14.7803C49.887 11.5225 47.3385 8.87209 44.206 8.87209C41.0734 8.87209 38.5249 11.5225 38.5249 14.7803C38.5249 18.0382 41.0734 20.6886 44.206 20.6886ZM38.5249 8.39062C40.0782 6.89323 42.0815 6.07302 44.206 6.07302C48.8225 6.07302 52.5784 9.97913 52.5784 14.7803C52.5784 19.5815 48.8225 23.4876 44.206 23.4876C42.0815 23.4876 40.0782 22.6676 38.5249 21.17V29.4634H35.8335V6.05284H38.5249V8.39062ZM57.7136 13.4208C58.3194 10.7749 60.5764 8.87507 63.1508 8.87507C65.6917 8.87507 67.82 10.7344 68.3873 13.4208H57.7136ZM63.1508 6.05284C58.6035 6.05284 54.9041 9.99125 54.9041 14.8318C54.9041 19.6725 58.6035 23.6108 63.1508 23.6108C65.6973 23.6108 68.0344 22.5959 69.564 20.8264L70.461 19.7879L70.3496 19.6784L68.6219 17.9867L68.5105 17.8773L68.4075 17.9961L67.6129 18.916C66.5994 20.0886 64.9314 20.7887 63.1508 20.7887C60.5764 20.7887 58.3195 18.8889 57.7136 16.2428H71.1836V14.8318C71.1836 9.90902 67.6551 6.05284 63.1508 6.05284ZM124.308 14.8319C124.308 18.1165 121.76 20.7887 118.627 20.7887C115.495 20.7887 112.946 18.1165 112.946 14.8319C112.946 11.5472 115.495 8.87495 118.627 8.87495C121.76 8.87495 124.308 11.5472 124.308 14.8319ZM118.627 6.05284C114.011 6.05284 110.255 9.99108 110.255 14.8319C110.255 19.6725 114.011 23.6108 118.627 23.6108C123.244 23.6108 127 19.6725 127 14.8319C127 9.99108 123.244 6.05284 118.627 6.05284ZM81.1838 6.05284C79.3138 6.05284 77.5321 6.80861 76.1297 8.18894V6.05284H73.5095V23.6108H76.1297V14.6507C76.1297 11.4539 78.397 8.85303 81.1838 8.85303C83.9711 8.85303 86.239 11.4539 86.239 14.6507V23.6108H88.8587V14.6507C88.8587 9.90985 85.4157 6.05284 81.1838 6.05284Z" fill="#5F5F86"/>
<path fill-rule="evenodd" clip-rule="evenodd" d="M0.696289 14.3387H13.3583V27.4774L26.0203 14.3387V1.2002H13.3583L0.696289 14.3387Z" fill="#5F5F86"/>
</svg>
