<svg width="107" height="30" viewBox="0 0 107 30" fill="none" xmlns="http://www.w3.org/2000/svg">
<path d="M27.9867 22.377V0.250613H31.2261V8.97374C32.2462 7.36132 33.7763 6.55482 35.8161 6.55425C37.556 6.55425 38.901 7.10074 39.8511 8.19371C40.8012 9.2867 41.2764 10.8096 41.2765 12.7623V22.377H38.037V13.2399C38.037 10.7144 36.977 9.4516 34.8569 9.45125C33.7966 9.45125 32.9267 9.79085 32.247 10.47C31.5675 11.1492 31.2272 12.1043 31.2267 13.3353V22.3767L27.9867 22.377Z" fill="#5F5F86"/>
<path d="M56.5862 20.4673C55.1463 21.9955 53.3364 22.7595 51.1564 22.7595C48.9765 22.7595 47.1615 21.9955 45.7113 20.4673C44.2612 18.939 43.5362 16.9967 43.5363 14.6403C43.5365 12.284 44.2614 10.3474 45.7113 8.83053C47.1613 7.31333 48.9763 6.55456 51.1564 6.55421C53.3365 6.55387 55.1465 7.31265 56.5862 8.83053C58.0265 10.3483 58.7465 12.2849 58.7464 14.6403C58.7463 16.9958 58.0262 18.9381 56.5862 20.4673ZM48.0815 18.525C48.8509 19.4801 49.8759 19.9577 51.1564 19.9577C52.437 19.9577 53.462 19.4801 54.2313 18.525C55.001 17.5699 55.386 16.2751 55.3863 14.6403C55.3863 13.0275 54.9964 11.7434 54.2164 10.7882C53.4365 9.83292 52.4165 9.35535 51.1564 9.35548C49.8763 9.35548 48.8512 9.82771 48.0815 10.7722C47.3116 11.7166 46.9266 13.0058 46.9264 14.6397C46.9264 16.2751 47.3114 17.5702 48.0815 18.525Z" fill="#5F5F86"/>
<path d="M66.2449 22.759C63.2647 22.759 61.7745 21.061 61.7745 17.665V9.83332H59.5251V6.93633H61.8651L62.6152 2.38456H65.0448V6.93633H70.8347V9.83332H65.045V17.5697C65.045 18.9919 65.535 19.7029 66.5149 19.7028C67.4347 19.7028 68.2646 18.8113 69.0049 17.0284L71.525 18.3975C70.2847 21.3055 68.5247 22.7592 66.2449 22.759Z" fill="#5F5F86"/>
<path d="M72.5665 29.4447C71.1265 29.4447 69.9364 29.0202 68.9965 28.1712L70.1966 25.4651C70.7768 26.1864 71.4067 26.5473 72.0866 26.548C72.9865 26.548 73.4364 25.9326 73.4364 24.7016V6.93632H76.6759V24.7644C76.6759 26.4199 76.2909 27.6138 75.5208 28.3459C74.7509 29.0781 73.7661 29.4443 72.5665 29.4447ZM75.0565 4.32552C74.5239 4.3447 74.0059 4.13862 73.6165 3.75262C73.4291 3.56525 73.2815 3.3378 73.1833 3.08534C73.0851 2.83288 73.0385 2.56114 73.0466 2.28813C73.0394 2.01288 73.0864 1.73907 73.1845 1.48417C73.2827 1.22927 73.4298 0.998863 73.6165 0.807662C74.0081 0.428771 74.519 0.21875 75.049 0.21875C75.5789 0.21875 76.0899 0.428771 76.4815 0.807662C76.6721 0.996486 76.8229 1.22608 76.9238 1.48129C77.0245 1.73648 77.0733 2.01148 77.0665 2.28813C77.0712 2.55977 77.0215 2.82937 76.9207 3.07908C76.8198 3.32879 76.6702 3.55292 76.4815 3.73663C76.2922 3.92951 76.0689 4.08081 75.8244 4.18186C75.5798 4.28292 75.3189 4.33174 75.0565 4.32552Z" fill="#5F5F86"/>
<path d="M84.7223 22.7591C83.0619 22.7591 81.7168 22.3186 80.6872 21.438C79.6574 20.5572 79.1425 19.3743 79.1423 17.889C79.1423 16.5307 79.6773 15.3791 80.7473 14.434C81.8172 13.489 83.1622 13.0168 84.7822 13.0174C86.4422 13.0174 87.8423 13.5799 88.9822 14.7048V12.8262C88.9822 11.7229 88.7172 10.8686 88.1871 10.2634C87.657 9.65809 86.902 9.35562 85.9223 9.35596C83.9423 9.35596 82.7123 10.4277 82.2322 12.5713L79.2621 11.9028C79.6617 10.2474 80.4517 8.94217 81.6323 7.98705C82.8128 7.03192 84.2828 6.55437 86.0421 6.55437C87.9623 6.55437 89.4774 7.09031 90.5872 8.16221C91.6971 9.23409 92.252 10.7993 92.2522 12.8579V22.3771H89.1021V20.4348C88.0418 21.9845 86.5819 22.7594 84.7223 22.7591ZM85.3215 20.2122C86.7617 20.2122 87.9818 19.4482 88.9821 17.9202V17.4421C87.9817 16.1687 86.7616 15.5319 85.3215 15.532C84.4816 15.532 83.8014 15.7498 83.2807 16.1852C83.0345 16.3776 82.8353 16.6297 82.6997 16.9205C82.5639 17.2112 82.4958 17.5322 82.5006 17.8565C82.4927 18.1843 82.558 18.5094 82.6908 18.8055C82.8238 19.1014 83.0209 19.3599 83.2657 19.5597C83.7768 19.9948 84.4617 20.2123 85.3215 20.2122Z" fill="#5F5F86"/>
<path d="M95.4045 22.377V6.93628H98.5545V9.6105C99.3542 7.65797 100.734 6.68165 102.695 6.68154C103.854 6.68154 104.814 7.08478 105.575 7.89128C106.335 8.69778 106.715 9.78021 106.714 11.1386C106.706 11.9516 106.575 12.7579 106.324 13.5263L103.354 13.208C103.415 12.786 103.455 12.361 103.474 11.9346C103.474 10.3428 102.854 9.54685 101.614 9.54674C100.774 9.54674 100.069 10.019 99.4993 10.9634C98.9295 11.9079 98.6444 13.1549 98.6442 14.7045V22.377H95.4045Z" fill="#5F5F86"/>
<path d="M7.7513 13.2669C10.1657 11.8435 13.4723 9.89363 13.4723 4.21875H9.46835C9.46835 7.39386 8.01174 8.25262 5.80682 9.5526C3.39247 10.9765 0.0858154 12.9256 0.0858154 18.601H4.08976C4.08976 15.4257 5.54637 14.5669 7.7513 13.2669Z" fill="#5F5F86"/>
<path d="M14.6812 11.9628C14.6812 15.1381 13.2246 15.9968 11.0197 17.2966C8.606 18.72 5.2987 20.6697 5.2987 26.345H9.30248C9.30248 23.1697 10.7591 22.3109 12.964 21.011C15.3783 19.5876 18.6849 17.6382 18.6849 11.9628H14.6812Z" fill="#5F5F86"/>
</svg>
