<svg width="126" height="26" viewBox="0 0 126 26" fill="none" xmlns="http://www.w3.org/2000/svg">
<path fill-rule="evenodd" clip-rule="evenodd" d="M122.712 19.1506C122.787 20.0051 123.469 21.0927 124.652 21.0927H125.343C125.611 21.0927 125.831 20.8727 125.831 20.6039V5.36695H125.827C125.814 5.11025 125.602 4.90466 125.343 4.90466H123.2C122.941 4.90466 122.729 5.11025 122.715 5.36695H122.712V6.60503C121.399 4.98372 119.329 4.31079 117.254 4.31079C112.535 4.31079 108.71 8.14559 108.71 12.8763C108.71 17.6074 112.535 21.4423 117.254 21.4423C119.329 21.4423 121.592 20.6353 122.712 19.1487V19.1506ZM117.261 18.4445C114.261 18.4445 111.828 15.9517 111.828 12.8763C111.828 9.80152 114.261 7.30871 117.261 7.30871C120.263 7.30871 122.695 9.80152 122.695 12.8763C122.695 15.9517 120.263 18.4445 117.261 18.4445Z" fill="#5F5F86"/>
<path fill-rule="evenodd" clip-rule="evenodd" d="M106 11.7902C106 7.34577 103.204 4.34749 98.7441 4.34749C96.6152 4.34749 94.8701 5.58169 94.2537 6.64188C94.1205 5.81289 93.6815 4.9415 92.3202 4.9415H91.6263C91.3579 4.9415 91.1387 5.16179 91.1387 5.43058V20.6688H91.1414C91.1555 20.9251 91.3674 21.1309 91.6265 21.1309H93.7695C93.8022 21.1309 93.8344 21.127 93.8655 21.1209C93.8797 21.1181 93.8928 21.1126 93.9067 21.1087C93.9226 21.1037 93.9392 21.0999 93.9544 21.0937C93.9734 21.0858 93.9907 21.0752 94.0084 21.0652C94.0171 21.0599 94.0263 21.0562 94.0346 21.0506C94.056 21.0367 94.0756 21.0201 94.0946 21.0031C94.0977 21 94.1014 20.9979 94.1045 20.995C94.1258 20.9743 94.1453 20.9515 94.1625 20.9279C94.2161 20.8541 94.2489 20.7647 94.2542 20.6688H94.257V11.6679C94.257 9.28098 96.1873 7.34577 98.5683 7.34577C100.949 7.34577 102.88 9.28098 102.88 11.6679L102.881 19.1915L102.882 19.1888C102.882 19.1955 102.883 19.2023 102.883 19.2094V20.6688H102.886C102.9 20.9251 103.112 21.1309 103.371 21.1309H105.514C105.547 21.1309 105.579 21.127 105.61 21.1209C105.623 21.1186 105.634 21.1135 105.647 21.11C105.664 21.1049 105.682 21.1005 105.699 21.0937C105.717 21.0864 105.733 21.0763 105.749 21.0669C105.759 21.0612 105.77 21.0571 105.78 21.0506C105.799 21.0375 105.817 21.0218 105.835 21.0063C105.84 21.002 105.845 20.9989 105.849 20.9946C105.87 20.975 105.888 20.9538 105.904 20.9315C105.905 20.9299 105.907 20.9285 105.908 20.9269C105.961 20.8537 105.993 20.7654 105.999 20.67L105.999 20.6688H106.002L106 11.7902Z" fill="#5F5F86"/>
<path fill-rule="evenodd" clip-rule="evenodd" d="M83.6832 19.1506C83.7581 20.0051 84.4404 21.0927 85.6224 21.0927H86.3139C86.582 21.0927 86.8015 20.8726 86.8015 20.6038V5.36695H86.7987C86.7848 5.11025 86.5727 4.90466 86.3139 4.90466H84.171C83.9118 4.90466 83.7001 5.11025 83.6857 5.36695H83.6832V6.60503C82.3701 4.98372 80.3001 4.31079 78.2243 4.31079C73.5059 4.31079 69.6811 8.14558 69.6811 12.8764C69.6811 17.6074 73.5059 21.4423 78.2243 21.4423C80.3001 21.4423 82.5624 20.6353 83.683 19.1487L83.6832 19.1506ZM78.2326 18.4444C75.232 18.4444 72.7991 15.9518 72.7991 12.8764C72.7991 9.80152 75.232 7.30871 78.2326 7.30871C81.2336 7.30871 83.666 9.80152 83.666 12.8764C83.666 15.9518 81.2336 18.4444 78.2326 18.4444Z" fill="#5F5F86"/>
<path fill-rule="evenodd" clip-rule="evenodd" d="M57.0087 16.9684C58.4392 17.962 60.0008 18.4446 61.5013 18.4446C62.9309 18.4446 64.4088 17.7016 64.4088 16.4083C64.4088 14.6817 61.1884 14.413 59.1651 13.7236C57.1413 13.0342 55.3983 11.6089 55.3983 9.30087C55.3983 5.76918 58.5371 4.31055 61.4666 4.31055C63.3228 4.31055 65.2379 4.9242 66.4795 5.80325C66.9071 6.12809 66.6467 6.50103 66.6467 6.50103L65.4615 8.19815C65.3283 8.3893 65.0953 8.55445 64.761 8.34756C64.4266 8.14081 63.2539 7.30856 61.4666 7.30856C59.6792 7.30856 58.6025 8.13612 58.6025 9.16185C58.6025 10.3919 60.0019 10.7787 61.6409 11.198C64.4972 11.9699 67.613 12.8977 67.613 16.4083C67.613 19.52 64.7099 21.443 61.5013 21.443C59.0699 21.443 56.9998 20.7481 55.2636 19.4707C54.9019 19.1078 55.1545 18.7708 55.1545 18.7708L56.3339 17.0823C56.5739 16.7666 56.8764 16.8767 57.0087 16.9684Z" fill="#5F5F86"/>
<path fill-rule="evenodd" clip-rule="evenodd" d="M48.7704 19.1506C48.8453 20.0051 49.5276 21.0927 50.7095 21.0927H51.4011C51.6692 21.0927 51.8889 20.8726 51.8889 20.6038V5.36695H51.8859C51.8718 5.11025 51.6602 4.90466 51.4011 4.90466H49.2582C48.999 4.90466 48.7874 5.11025 48.773 5.36695H48.7704V6.60503C47.4575 4.98372 45.3874 4.31079 43.3116 4.31079C38.5933 4.31079 34.7682 8.14558 34.7682 12.8764C34.7682 17.6074 38.5933 21.4423 43.3116 21.4423C45.3874 21.4423 47.6496 20.6353 48.7701 19.1487L48.7704 19.1506ZM43.32 18.4444C40.3191 18.4444 37.8863 15.9518 37.8863 12.8764C37.8863 9.80152 40.3191 7.30871 43.32 7.30871C46.3207 7.30871 48.7532 9.80152 48.7532 12.8764C48.7532 15.9518 46.3207 18.4444 43.32 18.4444Z" fill="#5F5F86"/>
<path fill-rule="evenodd" clip-rule="evenodd" d="M22.2407 13.5701C18.827 13.5701 16.0594 16.2147 16.0594 19.4774C16.0594 22.7397 18.827 25.3844 22.2407 25.3844C25.6546 25.3844 28.4221 22.7397 28.4221 19.4774C28.4221 16.2147 25.6546 13.5701 22.2407 13.5701ZM6.18129 13.5707C2.76749 13.5707 0 16.2147 0 19.4774C0 22.7397 2.76749 25.3844 6.18129 25.3844C9.59523 25.3844 12.3629 22.7397 12.3629 19.4774C12.3629 16.2147 9.59523 13.5707 6.18129 13.5707ZM20.3922 6.18617C20.3922 9.44876 17.6249 12.0937 14.211 12.0937C10.7971 12.0937 8.02976 9.44876 8.02976 6.18617C8.02976 2.92424 10.7971 0.279297 14.211 0.279297C17.6249 0.279297 20.3922 2.92424 20.3922 6.18617Z" fill="#5F5F86"/>
</svg>
