<svg width="106" height="26" viewBox="0 0 106 26" fill="none" xmlns="http://www.w3.org/2000/svg">
<path d="M6.67194 10.3972C11.205 8.74032 11.9765 4.4242 11.3979 0.455833C11.3979 0.312644 11.5136 0.210367 11.6293 0.251278C15.9694 2.50138 20.8497 7.41071 20.8497 14.7747C20.8497 20.4204 16.7217 25.4116 10.7227 25.4116C8.5821 25.5148 6.47002 24.8591 4.71984 23.548C2.96965 22.2369 1.68105 20.345 1.0574 18.171C0.433753 15.997 0.510585 13.6647 1.27577 11.5421C2.04095 9.41958 3.45091 7.6277 5.2831 6.4493C5.39884 6.36748 5.55315 6.4493 5.55315 6.59249C5.61102 7.34934 5.80392 9.25171 6.59478 10.3972H6.67194Z" fill="#5F5F86"/>
<path d="M38.3721 20.7182L38.7 20.3091L39.7223 23.7456L39.5873 23.8888C38.8157 24.6456 37.6584 25.0343 36.1731 25.0343H36.1152C34.7649 25.0343 33.704 24.6252 32.971 23.8683C32.238 23.091 31.8522 21.925 31.8522 20.4523V11.0836H29.2482V7.29935H31.8522V2.73776H35.8644V7.29935H39.0472V11.0836H35.8451V19.5318C35.8451 19.9204 35.9416 21.1682 37.0604 21.1682C37.6391 21.1682 38.1792 20.9432 38.3721 20.6977V20.7182ZM40.4939 24.6456V7.3198H44.5061V24.6456H40.4939ZM42.4807 0.242188C42.9568 0.242204 43.4222 0.391664 43.8183 0.67173C44.2143 0.951796 44.5234 1.34993 44.7064 1.81596C44.8895 2.28199 44.9384 2.79506 44.8469 3.29049C44.7554 3.78592 44.5276 4.24155 44.1924 4.59994C43.8571 4.95834 43.4293 5.20346 42.9628 5.30442C42.4964 5.40538 42.0122 5.35765 41.5713 5.16725C41.1304 4.97686 40.7525 4.65232 40.4852 4.23453C40.218 3.81674 40.0733 3.32441 40.0695 2.81958C40.0695 1.42861 41.169 0.242188 42.4807 0.242188ZM55.2889 6.89023C58.761 6.89023 60.6706 8.89488 60.6706 12.5564V24.6252H56.6584V13.5792C56.5813 11.6155 55.694 10.7154 53.8036 10.7154C52.1061 10.7154 50.7366 11.82 50.0422 12.761V24.6252H46.03V7.34026H50.0422V9.18125C51.1995 7.99483 53.0513 6.93115 55.2889 6.93115V6.89023ZM74.0189 9.11989V0.978586H78.0311V24.6661H74.0189V22.866C73.4049 23.5527 72.6664 24.1006 71.8476 24.4767C71.0288 24.8529 70.1467 25.0495 69.2544 25.0547C64.8757 25.0547 61.9437 21.4137 61.9437 15.9929C61.9437 10.5518 64.8757 6.91069 69.2544 6.91069C70.1486 6.91502 71.0326 7.11323 71.8519 7.49314C72.6713 7.87305 73.4087 8.42665 74.0189 9.11989ZM74.0189 12.7814C73.5717 12.1638 73.0004 11.6598 72.3463 11.3059C71.6923 10.9521 70.9721 10.7573 70.2382 10.7359C67.7498 10.7359 66.0909 12.8428 66.0909 15.9929C66.0909 19.1226 67.7498 21.2296 70.2382 21.2296C71.6849 21.2296 73.2666 20.4113 74.0189 19.2249V12.7814ZM87.4057 6.91069C92.1509 6.91069 95.4494 10.7972 95.4494 16.3202V17.4862H83.3164C83.7215 19.9204 85.5347 21.475 88.0037 21.475C89.5662 21.475 91.2829 20.7591 92.2667 19.7159L92.5367 19.4704L94.4464 22.3751L94.2535 22.5592C92.446 24.2587 90.0897 25.1526 87.6758 25.0547C82.6605 25.0547 79.1306 21.3114 79.1306 15.9725C79.0916 14.7938 79.2776 13.6188 79.6774 12.5182C80.0772 11.4176 80.6827 10.414 81.4573 9.5677C82.232 8.72137 83.1599 8.04976 84.1854 7.59318C85.2109 7.13659 86.3128 6.90445 87.425 6.91069H87.4057ZM83.2971 14.2747H91.5337C91.3022 11.6768 89.2768 10.4904 87.4057 10.4904C84.5895 10.4904 83.5286 12.7405 83.2971 14.2951V14.2747ZM105.152 6.91069H105.441V11.2064L105.094 11.145C104.805 11.0836 104.438 11.0427 104.072 11.0427C102.779 11.0427 100.985 12.0041 100.31 13.0269V24.6252H96.2982V7.3198H100.33V9.24262C101.661 7.76982 103.416 6.91069 105.152 6.91069Z" fill="#5F5F86"/>
</svg>
