<svg width="1302" height="34" viewBox="0 0 1302 34" fill="none" xmlns="http://www.w3.org/2000/svg">
<path d="M0 32.832H179.084C182.707 32.832 186.207 31.5209 188.938 29.1408L217.017 4.67248C222.541 -0.14146 230.735 -0.25963 236.396 4.393L266.847 29.4202C269.53 31.6261 272.897 32.832 276.371 32.832H465.428C469.529 32.832 473.45 31.1532 476.281 28.1861L496.589 6.89841C502.2 1.01753 511.473 0.674867 517.502 6.12567L542.758 28.9588C545.515 31.4517 549.1 32.832 552.817 32.832H756.061C760.482 32.832 764.677 30.882 767.527 27.5027L783.037 9.11261C788.792 2.28934 799.196 1.9708 805.357 8.42923L824.205 28.1861C827.036 31.1532 830.958 32.832 835.058 32.832H1059.5C1063.84 32.832 1067.96 30.9547 1070.81 27.6842L1087.31 8.73881C1093.11 2.08007 1103.38 1.84757 1109.48 8.23697L1128.51 28.1861C1131.34 31.1532 1135.26 32.832 1139.36 32.832H1302" stroke="#CCCCE9"/>
</svg>
